<svg width="295" height="75" viewBox="0 0 295 75" fill="none" xmlns="http://www.w3.org/2000/svg">
<mask id="mask0_1_62" style="mask-type:luminance" maskUnits="userSpaceOnUse" x="0" y="0" width="73" height="73">
<path d="M0.380188 0.776047H72.375V72.7708H0.380188V0.776047Z" fill="white"/>
</mask>
<g mask="url(#mask0_1_62)">
<mask id="mask1_1_62" style="mask-type:luminance" maskUnits="userSpaceOnUse" x="0" y="0" width="73" height="73">
<path d="M36.375 0.776047C16.4948 0.776047 0.380188 16.8958 0.380188 36.776C0.380188 56.6563 16.4948 72.7708 36.375 72.7708C56.2604 72.7708 72.375 56.6563 72.375 36.776C72.375 16.8958 56.2604 0.776047 36.375 0.776047Z" fill="white"/>
</mask>
<g mask="url(#mask1_1_62)">
<path d="M0.380188 0.776047H72.375V72.7708H0.380188V0.776047Z" fill="#53F5D0"/>
</g>
</g>
<mask id="mask2_1_62" style="mask-type:luminance" maskUnits="userSpaceOnUse" x="46" y="32" width="43" height="43">
<path d="M46.2864 32.2708H88.7864V74.7708H46.2864V32.2708Z" fill="white"/>
</mask>
<g mask="url(#mask2_1_62)">
<mask id="mask3_1_62" style="mask-type:luminance" maskUnits="userSpaceOnUse" x="46" y="32" width="43" height="43">
<path d="M67.5364 32.2708C55.8021 32.2708 46.2864 41.7865 46.2864 53.5208C46.2864 65.2552 55.8021 74.7708 67.5364 74.7708C79.2708 74.7708 88.7864 65.2552 88.7864 53.5208C88.7864 41.7865 79.2708 32.2708 67.5364 32.2708Z" fill="white"/>
</mask>
<g mask="url(#mask3_1_62)">
<path d="M46.2864 32.2708H88.7864V74.7708H46.2864V32.2708Z" fill="#FC971B"/>
</g>
</g>
<path d="M115.377 59.1999H104.877L119.836 18.7624H130.211L144.794 59.1999H134.336L132.211 52.4291H117.502L115.377 59.1999ZM124.794 28.6999C124.445 29.9083 124.07 31.1947 123.669 32.5541C123.263 33.9031 122.586 36.0958 121.627 39.1374L119.961 44.4916H129.69L128.023 39.1374C127.466 37.5124 126.903 35.7937 126.336 33.9708C125.778 32.1374 125.263 30.3822 124.794 28.6999Z" fill="white"/>
<path d="M157.8 18.7624V59.1999H147.821V18.7624H157.8Z" fill="white"/>
<path d="M191.067 50.4916C192.786 50.4916 194.655 50.3145 196.671 49.9499C198.697 49.5906 200.509 49.1062 202.108 48.4916V57.3249C199.733 58.2729 197.598 58.9239 195.713 59.2833C193.822 59.6583 191.848 59.8458 189.796 59.8458C186.046 59.8458 183.051 59.4135 180.817 58.5541C178.577 57.6947 176.796 56.3197 175.463 54.4291C174.348 52.7937 173.525 50.7104 172.983 48.1791C172.452 45.6374 172.192 42.5645 172.192 38.9499C172.192 31.7312 173.744 26.4499 176.858 23.1166C179.968 19.7833 184.921 18.1166 191.713 18.1166C193.697 18.1166 195.463 18.1687 197.004 18.2624C198.556 18.3458 199.952 18.4916 201.192 18.6999V27.4083C199.775 27.3249 198.301 27.2624 196.775 27.2208C195.244 27.1791 193.556 27.1583 191.713 27.1583C189.348 27.1583 187.598 27.3874 186.463 27.8458C185.322 28.2937 184.473 29.0697 183.921 30.1791C183.405 31.0437 183.036 32.1791 182.817 33.5958C182.608 35.0124 182.504 36.7989 182.504 38.9499C182.504 40.9812 182.598 42.6739 182.796 44.0333C182.989 45.3822 183.301 46.5072 183.733 47.4083C184.286 48.5229 185.098 49.3145 186.171 49.7833C187.254 50.2572 188.884 50.4916 191.067 50.4916Z" fill="white"/>
<path d="M215.632 59.1999H205.966V16.3249H215.632V29.5958C217.226 28.6947 218.872 27.9864 220.57 27.4708C222.262 26.9604 223.887 26.6999 225.445 26.6999C229.054 26.6999 231.747 27.5645 233.528 29.2833C235.32 31.0072 236.216 33.6322 236.216 37.1583V59.1999H226.528V38.4291C226.528 37.3614 226.205 36.5906 225.57 36.1166C224.929 35.6479 223.893 35.4083 222.466 35.4083C221.393 35.4083 220.257 35.5072 219.049 35.6999C217.851 35.8979 216.716 36.1374 215.632 36.4291V59.1999Z" fill="white"/>
<path d="M249.349 59.8458C246.083 59.8458 243.687 59.0333 242.161 57.4083C240.646 55.7729 239.891 53.1895 239.891 49.6583C239.891 46.0489 240.797 43.5124 242.62 42.0541C244.453 40.5854 247.599 39.8458 252.057 39.8458C253.099 39.8458 254.167 39.9031 255.266 40.0124C256.359 40.127 257.312 40.2624 258.12 40.4291V38.1166C258.12 37.0906 257.682 36.3249 256.807 35.8249C255.932 35.3249 254.589 35.0749 252.786 35.0749C250.714 35.0749 248.875 35.1322 247.266 35.2416C245.651 35.3562 244.182 35.5437 242.849 35.8041V27.8666C244.432 27.4812 246.276 27.1895 248.391 26.9916C250.5 26.7989 252.953 26.6999 255.745 26.6999C259.703 26.6999 262.703 27.5854 264.745 29.3458C266.786 31.1114 267.807 33.7156 267.807 37.1583V59.1999H258.766L258.453 56.4916H258.266C256.932 57.5229 255.464 58.3406 253.87 58.9499C252.286 59.5437 250.776 59.8458 249.349 59.8458ZM253.349 46.2416C251.641 46.2416 250.479 46.4291 249.87 46.8041C249.271 47.1687 248.974 47.9239 248.974 49.0749C248.974 50.1479 249.214 50.8874 249.703 51.3041C250.203 51.7104 251.078 51.9083 252.328 51.9083C253.271 51.9083 254.255 51.7833 255.286 51.5333C256.328 51.2729 257.271 50.9447 258.12 50.5541V46.6166C257.604 46.4916 256.958 46.4031 256.182 46.3458C255.417 46.2781 254.474 46.2416 253.349 46.2416Z" fill="white"/>
<path d="M275.275 35.4083H271.546V27.3458H275.608L276.816 19.9291H284.941V27.3458H293.983V35.4083H284.941V47.7833C284.941 48.9916 285.254 49.8041 285.879 50.2208C286.504 50.627 287.738 50.8249 289.587 50.8249C290.238 50.8249 291.035 50.7729 291.983 50.6583C292.926 50.5489 293.717 50.4291 294.358 50.3041V58.5541C293.676 58.8614 292.613 59.1531 291.171 59.4291C289.723 59.7052 288.447 59.8458 287.337 59.8458C283.03 59.8458 279.941 58.9395 278.066 57.1166C276.202 55.2833 275.275 52.3041 275.275 48.1791V35.4083Z" fill="white"/>
<path d="M51.4149 41.3458V50.0541H47.0399V59.1999H37.0399V50.0541H20.3316V41.3458L24.9149 18.7624H34.5191L30.4566 41.3458H37.0399V25.8666H47.0399V41.3458H51.4149Z" fill="white"/>
<path d="M78.9568 60.0527C78.9568 62.6256 78.1964 64.511 76.686 65.7194C75.186 66.9277 72.8214 67.5319 69.6026 67.5319H59.061V42.011H69.6026C72.5193 42.011 74.5922 42.5267 75.8318 43.5527C77.0662 44.5683 77.686 46.2714 77.686 48.6569C77.686 50.1725 77.4828 51.3339 77.0818 52.136C76.6756 52.9277 75.8631 53.5475 74.6443 53.9902C76.1026 54.2819 77.186 54.9381 77.8943 55.9485C78.6026 56.9485 78.9568 58.3183 78.9568 60.0527ZM71.8735 49.5944C71.8735 48.6933 71.6964 48.0683 71.3526 47.7194C71.0193 47.36 70.436 47.1777 69.6026 47.1777H65.3526V52.3652H69.6026C70.436 52.3652 71.0193 52.1569 71.3526 51.7402C71.6964 51.3131 71.8735 50.5944 71.8735 49.5944ZM72.8526 59.636C72.8526 58.6673 72.6078 57.985 72.1235 57.5944C71.6339 57.1933 70.7953 56.9902 69.6026 56.9902H65.3526V62.1569H69.6026C70.7953 62.1569 71.6339 61.9694 72.1235 61.5944C72.6078 61.2194 72.8526 60.5683 72.8526 59.636Z" fill="white"/>
</svg>
