<svg width="142" height="101" viewBox="0 0 142 101" fill="none" xmlns="http://www.w3.org/2000/svg">
<g clip-path="url(#clip0_258_14327)">
<rect x="0.5" width="141" height="101" rx="14" fill="#72BF44" fill-opacity="0.1"/>
<rect x="0.5" width="141" height="101" rx="14" fill="black" fill-opacity="0.2"/>
<path fill-rule="evenodd" clip-rule="evenodd" d="M66.7042 69.5001H75.9625C82.4646 69.5001 85.7167 69.5001 88.0521 67.9688C89.0598 67.3084 89.9277 66.4561 90.6063 65.4605C92.1667 63.1688 92.1667 59.9751 92.1667 53.5918C92.1667 47.2063 92.1667 44.0147 90.6063 41.723C89.9277 40.7274 89.0598 39.8751 88.0521 39.2147C86.5521 38.2293 84.6729 37.8772 81.7958 37.7522C80.4229 37.7522 79.2417 36.7313 78.9729 35.4084C78.7675 34.4394 78.2339 33.571 77.4622 32.95C76.6905 32.329 75.728 31.9934 74.7375 32.0001H67.9292C65.8708 32.0001 64.0979 33.4272 63.6938 35.4084C63.425 36.7313 62.2438 37.7522 60.8708 37.7522C57.9958 37.8772 56.1167 38.2313 54.6146 39.2147C53.6075 39.8752 52.7404 40.7275 52.0625 41.723C50.5 44.0147 50.5 47.2063 50.5 53.5918C50.5 59.9751 50.5 63.1668 52.0604 65.4605C52.7354 66.4522 53.6021 67.3043 54.6146 67.9688C56.95 69.5001 60.2021 69.5001 66.7042 69.5001ZM71.3333 45.0688C66.5396 45.0688 62.6521 48.8834 62.6521 53.5897C62.6521 58.298 66.5396 62.1126 71.3333 62.1126C76.1271 62.1126 80.0146 58.298 80.0146 53.5918C80.0146 48.8834 76.1271 45.0688 71.3333 45.0688ZM71.3333 48.4772C68.4583 48.4772 66.125 50.7668 66.125 53.5918C66.125 56.4147 68.4583 58.7043 71.3333 58.7043C74.2083 58.7043 76.5417 56.4147 76.5417 53.5918C76.5417 50.7668 74.2083 48.4772 71.3333 48.4772ZM81.1708 46.773C81.1708 45.8313 81.9479 45.0688 82.9083 45.0688H85.2208C86.1792 45.0688 86.9583 45.8313 86.9583 46.773C86.9539 47.229 86.7687 47.6647 86.4433 47.9842C86.1179 48.3038 85.679 48.4811 85.2229 48.4772H82.9083C82.6823 48.4794 82.4581 48.437 82.2485 48.3526C82.0389 48.2681 81.848 48.1432 81.6866 47.985C81.5253 47.8267 81.3967 47.6382 81.3082 47.4303C81.2197 47.2223 81.173 46.999 81.1708 46.773Z" fill="white"/>
</g>
<defs>
<clipPath id="clip0_258_14327">
<rect x="0.5" width="141" height="101" rx="14" fill="white"/>
</clipPath>
</defs>
</svg>
