<svg width="750" height="500" viewBox="0 0 750 500" fill="none" xmlns="http://www.w3.org/2000/svg">
<path d="M254.55 424.62L243.55 429.35L244.29 364.1C244.63 356.29 241.04 352.96 239.09 350.74C221.38 330.6 194.97 345.21 194.74 365.62L194.08 423.93L183.37 423.81L184.43 362.81C184.51 355.94 189.85 344.02 195.24 339.75C225.04 316.14 255.53 340.53 255.24 366.33L254.55 424.62Z" fill="#F5F5F5"/>
<path d="M254.55 424.62V423.45C254.55 422.68 254.55 421.55 254.55 420.07C254.55 417.07 254.61 412.72 254.65 407.07C254.69 401.42 254.76 394.57 254.83 386.58C254.87 382.58 254.91 378.323 254.95 373.81C254.95 369.29 255.36 364.48 254.43 359.54C253.499 354.367 251.403 349.473 248.3 345.23C247.89 344.68 247.5 344.12 247.07 343.58C246.64 343.04 246.15 342.58 245.69 342.03C244.75 340.987 243.748 340.002 242.69 339.08C242.18 338.59 241.58 338.2 241.02 337.75C240.46 337.3 239.91 336.84 239.28 336.48C238.068 335.672 236.806 334.944 235.5 334.3C232.828 332.956 230 331.948 227.08 331.3L224.82 330.93L223.69 330.74L222.54 330.67L220.22 330.52C219.44 330.52 218.66 330.57 217.88 330.6C211.415 330.894 205.158 332.97 199.8 336.6C194.162 340.417 189.742 345.778 187.07 352.04C185.728 355.271 184.846 358.674 184.45 362.15C184.15 365.65 184.23 369.26 184.16 372.87C184 387.34 183.83 402.32 183.66 417.67C183.66 419.717 183.637 421.757 183.59 423.79L183.34 423.53L194.05 423.65L193.8 423.9C193.927 412.3 194.057 400.967 194.19 389.9C194.25 384.393 194.313 378.963 194.38 373.61C194.38 370.943 194.41 368.293 194.47 365.66C194.527 363.031 194.965 360.424 195.77 357.92C197.411 353.048 200.503 348.795 204.63 345.73C205.119 345.344 205.63 344.987 206.16 344.66L207.76 343.66C208.846 343.085 209.972 342.59 211.13 342.18C212.275 341.763 213.448 341.429 214.64 341.18C215.23 341.05 215.83 341 216.42 340.9L217.31 340.78H218.21C220.559 340.65 222.915 340.848 225.21 341.37C227.447 341.907 229.604 342.73 231.63 343.82C237.394 347.02 241.695 352.328 243.63 358.63C244.195 360.584 244.531 362.598 244.63 364.63C244.63 365.13 244.63 365.63 244.68 366.12C244.73 366.61 244.68 367.12 244.68 367.59C244.68 368.59 244.68 369.53 244.68 370.49C244.68 372.4 244.68 374.28 244.61 376.12C244.51 383.48 244.43 390.24 244.35 396.34C244.18 408.53 244.05 418.07 243.96 424.41L243.89 424.34L251.97 424.47H253.97H254.62H252L243.88 424.42H243.81V424.35C243.81 418.01 243.95 408.47 244.06 396.28C244.12 390.18 244.19 383.41 244.26 376.05C244.26 374.21 244.26 372.33 244.32 370.42C244.32 369.42 244.32 368.5 244.32 367.52C244.32 367.04 244.32 366.52 244.32 366.06L244.26 364.59C244.111 360.492 242.894 356.503 240.73 353.02C238.473 349.29 235.277 346.217 231.46 344.11C229.468 343.043 227.347 342.236 225.15 341.71C222.884 341.202 220.558 341.013 218.24 341.15H217.36L216.49 341.28C215.9 341.37 215.31 341.42 214.73 341.55C212.38 342.051 210.11 342.869 207.98 343.98L206.41 344.92C205.891 345.224 205.39 345.558 204.91 345.92C200.854 348.937 197.82 353.125 196.22 357.92C195.432 360.379 195.008 362.939 194.96 365.52C194.96 368.147 194.93 370.797 194.87 373.47C194.81 378.803 194.75 384.233 194.69 389.76C194.57 400.76 194.44 412.13 194.31 423.76V424.01H194.06L183.34 423.89H183.09V423.64C183.09 421.64 183.113 419.6 183.16 417.52C183.34 402.18 183.51 387.2 183.68 372.72C183.75 369.1 183.68 365.53 183.97 361.95C184.378 358.429 185.277 354.982 186.64 351.71C188.034 348.583 189.837 345.654 192 343C194.192 340.414 196.717 338.131 199.51 336.21C204.937 332.529 211.279 330.425 217.83 330.13C218.62 330.13 219.41 330.04 220.2 330.06L222.89 330.22L224.37 330.39L226.61 330.76L227.61 330.98C230.387 331.63 233.073 332.617 235.61 333.92C236.935 334.57 238.214 335.308 239.44 336.13C240.07 336.5 240.61 337 241.19 337.42C241.77 337.84 242.36 338.27 242.89 338.76C243.949 339.7 244.95 340.701 245.89 341.76L247.29 343.33C247.72 343.88 248.11 344.45 248.52 345.01C251.651 349.301 253.761 354.25 254.69 359.48C255.62 364.48 255.15 369.32 255.18 373.84C255.21 378.36 255.06 382.66 255.01 386.66C254.9 394.66 254.8 401.54 254.72 407.17C254.64 412.8 254.58 417.17 254.53 420.11C254.53 421.57 254.53 422.7 254.47 423.46C254.41 424.22 254.55 424.62 254.55 424.62Z" fill="#E0E0E0"/>
<path d="M171.137 385.721L268.131 386.822C269.122 386.833 270.069 387.238 270.763 387.947C271.456 388.656 271.839 389.612 271.828 390.604L270.977 465.569C270.967 466.471 270.599 467.331 269.954 467.962C269.31 468.592 268.441 468.941 267.539 468.93L170.245 467.826L171.177 385.722L171.137 385.721Z" fill="#E0E0E0"/>
<path d="M171.138 385.511L256.438 386.364C257.515 386.375 258.543 386.813 259.297 387.582C260.051 388.351 260.468 389.388 260.457 390.465L259.727 463.465C259.714 464.791 259.175 466.058 258.228 466.986C257.281 467.914 256.003 468.428 254.677 468.415L170.457 467.573C169.343 467.562 168.28 467.108 167.5 466.313C166.72 465.517 166.288 464.445 166.299 463.331L167.037 389.531C167.048 388.454 167.486 387.426 168.255 386.672C169.024 385.918 170.061 385.501 171.138 385.511Z" fill="#EBEBEB"/>
<path d="M225.85 420.15C225.868 418.616 225.577 417.094 224.995 415.674C224.413 414.255 223.552 412.967 222.462 411.887C221.373 410.806 220.077 409.956 218.653 409.386C217.228 408.817 215.704 408.539 214.17 408.57C211.219 408.658 208.414 409.869 206.327 411.957C204.239 414.044 203.028 416.849 202.94 419.8C202.894 422.302 203.672 424.75 205.153 426.766C206.635 428.783 208.739 430.256 211.14 430.96L203.49 446.68L223.24 447.27L217.4 431C219.796 430.355 221.917 428.947 223.441 426.99C224.966 425.032 225.811 422.631 225.85 420.15Z" fill="#111111"/>
<path d="M259.18 461.09C259.04 461.09 259.18 446.8 259.43 429.18C259.68 411.56 260.04 397.26 260.18 397.26C260.32 397.26 260.18 411.55 259.93 429.18C259.68 446.81 259.32 461.1 259.18 461.09Z" fill="#FAFAFA"/>
<path d="M238.34 389C238.34 389.14 225.77 389.28 210.26 389.31C194.75 389.34 182.17 389.25 182.17 389.11C182.17 388.97 194.74 388.84 210.26 388.81C225.78 388.78 238.34 388.84 238.34 389Z" fill="white"/>
<path d="M202.5 426.06C202.304 425.848 202.145 425.605 202.03 425.34C201.671 424.644 201.383 423.914 201.17 423.16C200.454 420.649 200.521 417.979 201.361 415.507C202.2 413.034 203.773 410.876 205.87 409.32C206.493 408.849 207.163 408.443 207.87 408.11C208.119 407.972 208.389 407.877 208.67 407.83C208.67 407.91 207.58 408.38 206.08 409.6C204.11 411.173 202.632 413.278 201.822 415.666C201.012 418.053 200.904 420.623 201.51 423.07C202 425 202.58 426 202.5 426.06Z" fill="white"/>
<path d="M207 431.54C206.93 431.66 206.26 431.37 205.5 430.9C204.74 430.43 204.19 429.95 204.26 429.83C204.33 429.71 205.01 430 205.77 430.47C206.53 430.94 207 431.42 207 431.54Z" fill="white"/>
<path d="M216.52 333.17C215.882 333.292 215.238 333.375 214.59 333.42C212.843 333.654 211.118 334.025 209.43 334.53C203.821 336.158 198.791 339.349 194.929 343.73C191.067 348.111 188.532 353.501 187.62 359.27C187.319 361.007 187.168 362.767 187.17 364.53C187.17 365.77 187.17 366.47 187.17 366.47C187.116 366.309 187.089 366.14 187.09 365.97C187.09 365.64 186.99 365.16 186.98 364.53C186.909 362.751 187.01 360.97 187.28 359.21C188.114 353.344 190.648 347.851 194.568 343.408C198.488 338.966 203.623 335.768 209.34 334.21C211.05 333.708 212.805 333.373 214.58 333.21C215.2 333.14 215.69 333.15 216.02 333.14C216.187 333.133 216.355 333.143 216.52 333.17Z" fill="white"/>
<path d="M186.64 375.32C186.412 374.337 186.351 373.323 186.46 372.32C186.392 371.31 186.497 370.295 186.77 369.32C187.071 371.313 187.027 373.342 186.64 375.32Z" fill="white"/>
<path d="M683.38 126.9H456.37V418.24H683.38V126.9Z" fill="white"/>
<path d="M683.38 418.23C683.38 416.18 683.28 299.81 683.14 126.9L683.38 127.13H456.38L456.64 126.87C456.64 234.94 456.64 335.28 456.64 418.2L456.42 417.99L683.42 418.2L456.42 418.42H456.21V418.2C456.21 335.28 456.21 234.94 456.16 126.87V126.61H456.45H683.45H683.68V126.85C683.47 299.81 683.38 416.18 683.38 418.23Z" fill="#263238"/>
<path d="M659.95 238.05H480.5C479.699 238.05 479.05 238.699 479.05 239.5V268.1C479.05 268.901 479.699 269.55 480.5 269.55H659.95C660.751 269.55 661.4 268.901 661.4 268.1V239.5C661.4 238.699 660.751 238.05 659.95 238.05Z" fill="#EBEBEB"/>
<path d="M659.95 238.05H480.5C479.699 238.05 479.05 238.699 479.05 239.5V268.1C479.05 268.901 479.699 269.55 480.5 269.55H659.95C660.751 269.55 661.4 268.901 661.4 268.1V239.5C661.4 238.699 660.751 238.05 659.95 238.05Z" fill="#EBEBEB"/>
<path d="M660.13 281.31H480.68C479.879 281.31 479.23 281.959 479.23 282.76V311.36C479.23 312.161 479.879 312.81 480.68 312.81H660.13C660.931 312.81 661.58 312.161 661.58 311.36V282.76C661.58 281.959 660.931 281.31 660.13 281.31Z" fill="#EBEBEB"/>
<path d="M659.06 330.09H479.62C478.819 330.09 478.17 330.739 478.17 331.54V360.14C478.17 360.941 478.819 361.59 479.62 361.59H659.06C659.861 361.59 660.51 360.941 660.51 360.14V331.54C660.51 330.739 659.861 330.09 659.06 330.09Z" fill="#FD961A"/>
<path d="M546.79 346.08C546.786 345.564 546.889 345.052 547.091 344.577C547.294 344.102 547.592 343.674 547.967 343.32C548.343 342.965 548.787 342.691 549.273 342.516C549.758 342.341 550.275 342.267 550.79 342.3C551.382 342.271 551.973 342.38 552.516 342.618C553.059 342.855 553.539 343.216 553.92 343.67L552.61 344.86C552.41 344.592 552.151 344.375 551.852 344.226C551.553 344.077 551.224 343.999 550.89 344C550.362 344.037 549.868 344.272 549.506 344.659C549.145 345.046 548.944 345.556 548.944 346.085C548.944 346.614 549.145 347.124 549.506 347.511C549.868 347.898 550.362 348.133 550.89 348.17C551.224 348.168 551.552 348.09 551.85 347.941C552.149 347.792 552.409 347.576 552.61 347.31L553.92 348.5C553.538 348.953 553.057 349.312 552.514 349.549C551.972 349.787 551.382 349.896 550.79 349.87C550.274 349.903 549.757 349.829 549.27 349.653C548.784 349.477 548.339 349.203 547.964 348.847C547.588 348.491 547.29 348.062 547.088 347.586C546.886 347.11 546.785 346.597 546.79 346.08Z" fill="white"/>
<path d="M560.75 346.5V349.73H558.75V346.82C558.75 346.01 558.39 345.67 557.82 345.67C557.25 345.67 556.7 346.06 556.7 347V349.73H554.7V342H556.7V344.61C557.162 344.193 557.768 343.971 558.39 343.99C558.72 343.964 559.051 344.013 559.359 344.132C559.667 344.252 559.945 344.439 560.171 344.68C560.398 344.92 560.567 345.209 560.668 345.524C560.768 345.839 560.796 346.173 560.75 346.5Z" fill="white"/>
<path d="M567.28 346.59V349.73H565.44V349C565.27 349.282 565.022 349.51 564.725 349.655C564.429 349.801 564.098 349.858 563.77 349.82C562.42 349.82 561.67 349.06 561.67 348.08C561.67 347.1 562.43 346.4 564.18 346.4H565.3C565.3 345.82 564.88 345.5 564.1 345.5C563.552 345.502 563.017 345.673 562.57 345.99L561.91 344.65C562.662 344.202 563.525 343.973 564.4 343.99C566.23 344 567.28 344.8 567.28 346.59ZM565.28 347.92V347.43H564.43C563.79 347.43 563.56 347.65 563.56 348C563.56 348.35 563.84 348.57 564.3 348.57C564.514 348.583 564.727 348.527 564.908 348.41C565.088 348.293 565.225 348.121 565.3 347.92H565.28Z" fill="white"/>
<path d="M574.53 346.5V349.73H572.53V346.82C572.53 346.01 572.18 345.67 571.61 345.67C571.04 345.67 570.48 346.06 570.48 347V349.73H568.48V344.09H570.36V344.7C570.594 344.465 570.873 344.281 571.181 344.159C571.489 344.037 571.819 343.98 572.15 343.99C572.481 343.961 572.815 344.007 573.125 344.125C573.436 344.243 573.717 344.43 573.945 344.671C574.174 344.912 574.345 345.202 574.447 345.519C574.548 345.835 574.576 346.171 574.53 346.5Z" fill="white"/>
<path d="M581.92 344.09V348.7C581.92 350.83 580.71 351.84 578.61 351.84C577.624 351.875 576.65 351.617 575.81 351.1L576.53 349.72C577.086 350.111 577.75 350.321 578.43 350.32C579.49 350.32 579.94 349.84 579.94 348.96V348.77C579.728 348.997 579.468 349.174 579.18 349.288C578.891 349.403 578.58 349.451 578.27 349.43C577.549 349.43 576.857 349.143 576.347 348.633C575.837 348.123 575.55 347.431 575.55 346.71C575.55 345.989 575.837 345.297 576.347 344.787C576.857 344.277 577.549 343.99 578.27 343.99C578.606 343.965 578.944 344.023 579.252 344.159C579.561 344.295 579.831 344.505 580.04 344.77V344.09H581.92ZM579.92 346.71C579.936 346.464 579.878 346.219 579.753 346.006C579.628 345.794 579.442 345.624 579.219 345.518C578.996 345.413 578.746 345.377 578.503 345.415C578.259 345.453 578.033 345.563 577.853 345.732C577.672 345.9 577.547 346.119 577.493 346.359C577.438 346.6 577.458 346.851 577.548 347.08C577.638 347.31 577.795 347.507 577.999 347.646C578.203 347.785 578.443 347.859 578.69 347.86C578.854 347.885 579.022 347.873 579.181 347.827C579.34 347.78 579.488 347.699 579.612 347.59C579.737 347.48 579.836 347.345 579.903 347.193C579.97 347.041 580.003 346.876 580 346.71H579.92Z" fill="white"/>
<path d="M588.92 347.41H584.82C584.913 347.697 585.101 347.944 585.355 348.107C585.608 348.271 585.91 348.343 586.21 348.31C586.691 348.324 587.158 348.148 587.51 347.82L588.51 348.9C588.202 349.223 587.826 349.473 587.409 349.632C586.992 349.791 586.545 349.856 586.1 349.82C584.1 349.82 582.79 348.58 582.79 346.89C582.792 346.492 582.875 346.098 583.035 345.733C583.195 345.368 583.427 345.04 583.719 344.768C584.01 344.497 584.354 344.287 584.729 344.154C585.104 344.02 585.503 343.964 585.9 343.99C586.295 343.964 586.69 344.022 587.061 344.159C587.432 344.297 587.77 344.51 588.053 344.787C588.336 345.063 588.557 345.396 588.703 345.763C588.849 346.131 588.916 346.525 588.9 346.92C589 347.06 588.93 347.25 588.92 347.41ZM584.79 346.36H587.1C587.056 346.086 586.915 345.836 586.703 345.656C586.492 345.476 586.223 345.377 585.945 345.377C585.667 345.377 585.398 345.476 585.187 345.656C584.975 345.836 584.834 346.086 584.79 346.36Z" fill="white"/>
<path d="M600.17 137.83L592.27 136.19L602.27 88.08C602.642 85.5574 602.088 82.9855 600.71 80.84C588.12 63.41 567.64 70.49 564.5 85.55L555.5 128.55L547.6 126.9L557.69 78.48C558.21 75.9751 559.281 73.6174 560.826 71.5781C562.37 69.5388 564.35 67.869 566.62 66.69C592.06 53.58 613.41 73.96 609.06 94.85L600.17 137.83Z" fill="#E0E0E0"/>
<path d="M600.17 137.83C600.17 137.83 600.22 137.53 600.34 136.97C600.46 136.41 600.62 135.56 600.84 134.47L602.84 124.9C603.7 120.75 604.74 115.68 605.95 109.79L607.95 100.37C608.57 97.03 609.6 93.53 609.64 89.75C609.7 85.7928 608.859 81.8739 607.18 78.29C606.96 77.83 606.75 77.35 606.52 76.89L605.72 75.54C605.175 74.6355 604.578 73.764 603.93 72.93C603.61 72.49 603.23 72.11 602.88 71.7C602.53 71.29 602.19 70.87 601.78 70.51C601.003 69.7351 600.174 69.0135 599.3 68.35C597.526 66.9617 595.584 65.8025 593.52 64.9L591.91 64.3L591 64L590.16 63.78L588.47 63.34C587.89 63.21 587.31 63.15 586.73 63.05C581.906 62.3318 576.978 62.9617 572.49 64.87C568.927 66.3839 565.738 68.6586 563.147 71.5348C560.556 74.411 558.625 77.819 557.49 81.52C556.76 84.07 556.29 86.74 555.72 89.4C553.5 100.07 551.19 111.12 548.84 122.4C548.52 123.91 548.21 125.4 547.9 126.91L547.75 126.68L555.65 128.33L555.43 128.48C557.21 119.93 558.96 111.56 560.65 103.48C561.497 99.42 562.333 95.42 563.16 91.48L564.38 85.62C564.808 83.6844 565.509 81.8192 566.46 80.08C568.388 76.7235 571.289 74.0314 574.78 72.36C575.21 72.17 575.62 71.94 576.07 71.79L577.39 71.33C578.275 71.064 579.177 70.8602 580.09 70.72C580.997 70.5822 581.913 70.5087 582.83 70.5C583.28 70.5 583.74 70.5 584.19 70.56H584.86L585.53 70.67C587.29 70.9098 589.007 71.398 590.63 72.12C592.198 72.8422 593.667 73.7631 595 74.86C597.549 77.0121 599.49 79.7945 600.63 82.93C601.731 85.8645 602.051 89.0345 601.56 92.13L601.38 93.24C601.31 93.6 601.23 93.96 601.16 94.32L600.71 96.46C600.41 97.87 600.12 99.25 599.84 100.61C598.7 106.03 597.65 111.02 596.71 115.51C594.81 124.51 593.33 131.51 592.35 136.2L592.3 136.13L598.3 137.4L599.76 137.72L600.24 137.83L599.77 137.74L598.32 137.46L592.32 136.24V136.18L596.58 115.48C597.51 110.98 598.58 105.99 599.67 100.56C599.95 99.21 600.24 97.82 600.53 96.41C600.67 95.71 600.82 94.99 600.97 94.28C601.05 93.92 601.12 93.56 601.2 93.19C601.28 92.82 601.31 92.46 601.37 92.1C601.849 89.0504 601.529 85.9287 600.44 83.04C599.312 79.956 597.395 77.2218 594.88 75.11C593.561 74.0317 592.109 73.1276 590.56 72.42C588.967 71.7179 587.284 71.2401 585.56 71L584.9 70.9H584.23C583.79 70.9 583.35 70.84 582.9 70.9C581.09 70.9204 579.292 71.1965 577.56 71.72L576.26 72.18C575.829 72.3419 575.409 72.5289 575 72.74C571.57 74.3798 568.723 77.0279 566.84 80.33C565.915 82.0339 565.241 83.8629 564.84 85.76C564.44 87.7 564.033 89.6533 563.62 91.62C562.8 95.56 561.967 99.56 561.12 103.62L555.91 128.62V128.81H555.72L547.82 127.16H547.64V126.97C547.95 125.48 548.26 123.97 548.58 122.46C550.94 111.15 553.24 100.1 555.47 89.46C556.04 86.79 556.47 84.14 557.25 81.54C558.062 78.9986 559.223 76.5822 560.7 74.36C563.626 70.0627 567.73 66.7014 572.52 64.68C577.066 62.7527 582.057 62.1194 586.94 62.85C587.53 62.95 588.12 63.02 588.7 63.14L590.7 63.66L591.77 64L593.37 64.6L594.11 64.91C596.066 65.7967 597.91 66.9146 599.6 68.24C600.477 68.9191 601.311 69.6504 602.1 70.43C602.416 70.7733 602.716 71.1303 603 71.5C603.35 71.92 603.74 72.3 604.05 72.74C604.709 73.5865 605.316 74.4714 605.87 75.39L606.67 76.75C606.91 77.22 607.11 77.75 607.34 78.17C609.026 81.7971 609.864 85.7607 609.79 89.76C609.79 93.58 608.7 97.09 608.07 100.44C607.44 103.79 606.7 106.94 606.07 109.89C604.83 115.78 603.75 120.89 602.88 125C602.01 129.11 601.32 132.35 600.88 134.53L600.35 137C600.24 137.56 600.17 137.83 600.17 137.83Z" fill="#263238"/>
<path d="M544.191 96.9475L614.765 111.653C615.736 111.855 616.587 112.435 617.131 113.265C617.674 114.094 617.866 115.106 617.664 116.077L606.514 169.588C606.33 170.47 605.803 171.244 605.049 171.738C604.294 172.232 603.375 172.407 602.492 172.223L531.585 157.448L544.191 96.9475Z" fill="#455A64"/>
<g opacity="0.3">
<path d="M544.228 97.0044L614.43 111.632C615.5 111.855 616.437 112.494 617.036 113.408C617.635 114.322 617.846 115.436 617.623 116.506L606.628 169.273C606.424 170.254 605.838 171.114 604.999 171.663C604.161 172.213 603.138 172.407 602.157 172.202L531.622 157.505L544.228 97.0044Z" fill="black"/>
</g>
<path d="M544.792 97.075L605.665 109.759C606.719 109.978 607.643 110.608 608.233 111.508C608.823 112.409 609.031 113.507 608.812 114.561L598.047 166.222C597.777 167.52 597.002 168.658 595.892 169.384C594.783 170.111 593.431 170.367 592.133 170.097L532.356 157.642C531.816 157.529 531.304 157.311 530.848 157.001C530.392 156.69 530.002 156.293 529.7 155.832C529.398 155.37 529.189 154.854 529.087 154.312C528.984 153.77 528.989 153.213 529.101 152.673L540.029 100.23C540.247 99.1822 540.87 98.2632 541.762 97.6725C542.654 97.0818 543.743 96.8671 544.792 97.075Z" fill="#455A64"/>
<g opacity="0.3">
<path d="M579.61 130.36C579.846 129.229 579.852 128.063 579.629 126.929C579.406 125.796 578.957 124.719 578.31 123.762C577.663 122.805 576.83 121.988 575.862 121.359C574.893 120.73 573.807 120.302 572.67 120.1C570.475 119.738 568.226 120.227 566.379 121.466C564.532 122.705 563.227 124.602 562.73 126.77C562.336 128.614 562.558 130.536 563.362 132.241C564.166 133.946 565.507 135.341 567.18 136.21L559.23 146.72L573.74 150.02L571.74 137.17C573.616 137.051 575.401 136.32 576.822 135.091C578.243 133.861 579.223 132.199 579.61 130.36Z" fill="black"/>
</g>
<path d="M598.29 165.45C598.19 165.45 600.35 154.89 603.11 141.91C605.87 128.93 608.2 118.41 608.3 118.43C608.4 118.45 606.24 129 603.48 142C600.72 155 598.39 165.47 598.29 165.45Z" fill="#263238"/>
<path d="M593.37 109.14C593.37 109.24 584.04 107.51 572.58 105.28C561.12 103.05 551.83 101.16 551.85 101.06C551.87 100.96 561.18 102.68 572.65 104.91C584.12 107.14 593.39 109 593.37 109.14Z" fill="white"/>
<path d="M561.5 131.33C561.5 131.33 561.38 131.13 561.26 130.73C561.088 130.167 560.981 129.587 560.94 129C560.782 127.04 561.218 125.079 562.19 123.37C563.179 121.672 564.652 120.307 566.42 119.45C566.952 119.195 567.508 118.994 568.08 118.85C568.287 118.785 568.503 118.755 568.72 118.76C568.72 118.83 567.83 119.01 566.54 119.69C564.862 120.574 563.47 121.916 562.526 123.561C561.583 125.206 561.126 127.085 561.21 128.98C561.26 130.44 561.57 131.31 561.5 131.33Z" fill="white"/>
<path d="M564 136C563.93 136.08 563.47 135.77 563 135.31C562.53 134.85 562.17 134.42 562.24 134.31C562.31 134.2 562.77 134.55 563.24 135C563.71 135.45 564.07 136 564 136Z" fill="white"/>
<path d="M585.35 64.74C585.35 64.74 584.83 64.74 583.89 64.64C582.557 64.5567 581.219 64.5801 579.89 64.71C575.514 65.1056 571.34 66.7357 567.855 69.4106C564.369 72.0856 561.714 75.6954 560.2 79.82C559.736 81.0624 559.371 82.3398 559.11 83.64C558.93 84.56 558.85 85.08 558.82 85.08C558.805 84.9538 558.805 84.8262 558.82 84.7C558.82 84.45 558.82 84.08 558.95 83.61C559.163 82.2887 559.498 80.9898 559.95 79.73C561.42 75.5145 564.092 71.821 567.634 69.1043C571.177 66.3876 575.437 64.7663 579.89 64.44C581.222 64.3327 582.562 64.3528 583.89 64.5C584.36 64.5 584.72 64.62 584.97 64.65C585.1 64.6617 585.228 64.692 585.35 64.74Z" fill="white"/>
<path d="M557.15 91.54C557.125 90.7818 557.226 90.0248 557.45 89.3C557.549 88.5517 557.772 87.8251 558.11 87.15C558.141 87.9044 558.043 88.6586 557.82 89.38C557.721 90.1328 557.495 90.8633 557.15 91.54Z" fill="white"/>
<path d="M60.4199 413.6L42.45 438L72.7099 460.52C74.7099 457.52 63.34 440.04 63.34 440.04L75.5 424.88L60.4199 413.6Z" fill="#455A64"/>
<path d="M55 431.78C54.6441 431.65 54.2529 431.657 53.9019 431.8C53.551 431.942 53.2652 432.209 53.1 432.55C52.9594 432.903 52.9588 433.296 53.0981 433.649C53.2375 434.002 53.5064 434.288 53.85 434.45C54.227 434.583 54.6398 434.571 55.009 434.418C55.3782 434.265 55.6777 433.981 55.85 433.62C55.9605 433.237 55.918 432.826 55.7315 432.473C55.5449 432.121 55.2289 431.854 54.85 431.73" fill="white"/>
<path d="M42.41 438.06L44.32 435.44L72.59 458.2C72.59 458.2 73.49 459.8 72.59 460.63L42.41 438.06Z" fill="#263238"/>
<path d="M64 440.26C63.89 440.41 63.1 439.93 62 439.86C60.9 439.79 60.07 440.13 60 439.97C59.93 439.81 60.77 439.12 62.07 439.22C63.37 439.32 64.08 440.15 64 440.26Z" fill="#263238"/>
<path d="M66.15 443.94C66.07 444.11 65.25 443.88 64.28 444.13C63.31 444.38 62.68 444.94 62.53 444.82C62.38 444.7 62.92 443.82 64.13 443.51C65.34 443.2 66.25 443.8 66.15 443.94Z" fill="#263238"/>
<path d="M65.12 449.08C64.96 449.01 65.31 448.08 66.29 447.59C67.27 447.1 68.2 447.26 68.17 447.43C68.14 447.6 67.39 447.71 66.6 448.16C65.81 448.61 65.28 449.17 65.12 449.08Z" fill="#263238"/>
<path d="M66.34 436.5C66.17 436.59 65.65 435.88 64.77 435.32C63.89 434.76 63.05 434.53 63.06 434.32C63.07 434.11 64.06 434.07 65.12 434.75C66.18 435.43 66.5 436.44 66.34 436.5Z" fill="#263238"/>
<path d="M133.58 311.46C134.12 314.52 134.98 340.55 135.53 354.28C136.08 368.01 134.71 374.76 133.14 377.84C131.57 380.92 72.36 424.55 67.85 435L52.85 422.91C52.85 422.91 74.85 383.42 84.23 376.24C93.61 369.06 111.66 362.47 111.66 362.47L106.53 287.28L131.12 285.94L133.58 311.46Z" fill="#263238"/>
<path d="M78.55 437.73L78.29 468L116 468.52C115.83 464.92 96.42 457.41 96.42 457.41L97.42 438L78.55 437.73Z" fill="#455A64"/>
<path d="M84.78 455.66C84.4161 455.765 84.1038 456.001 83.9027 456.322C83.7016 456.643 83.6259 457.027 83.69 457.4C83.7828 457.768 84.0124 458.086 84.332 458.291C84.6516 458.495 85.0371 458.57 85.41 458.5C85.7943 458.386 86.1229 458.134 86.3333 457.793C86.5436 457.451 86.6207 457.045 86.55 456.65C86.416 456.276 86.1417 455.969 85.7853 455.793C85.4288 455.618 85.0181 455.588 84.64 455.71" fill="white"/>
<path d="M78.28 468.11V464.86L114.53 466.74C114.53 466.74 116.19 467.51 115.98 468.69L78.28 468.11Z" fill="#263238"/>
<path d="M97 457.27C97 457.46 96.07 457.53 95.16 458.11C94.25 458.69 93.75 459.45 93.58 459.38C93.41 459.31 93.7 458.24 94.82 457.56C95.94 456.88 97.08 457.1 97 457.27Z" fill="#263238"/>
<path d="M101 459C101 459.18 100.23 459.48 99.6 460.25C98.97 461.02 98.77 461.85 98.6 461.83C98.43 461.81 98.31 460.78 99.12 459.83C99.93 458.88 101 458.79 101 459Z" fill="#263238"/>
<path d="M103.15 463.73C102.98 463.73 102.74 462.84 103.22 461.84C103.7 460.84 104.58 460.45 104.65 460.6C104.72 460.75 104.19 461.29 103.8 462.12C103.41 462.95 103.33 463.71 103.15 463.73Z" fill="#263238"/>
<path d="M96.76 452.82C96.68 452.99 95.84 452.72 94.76 452.82C93.68 452.92 92.9 453.19 92.76 453.03C92.62 452.87 93.45 452.23 94.68 452.18C95.91 452.13 96.85 452.68 96.76 452.82Z" fill="#263238"/>
<path d="M136.3 282.83C136.3 284.6 139.17 329.41 124.52 361.83C124.52 361.83 119.45 371.97 118.52 376.4C117.59 380.83 98.6399 454.31 98.6399 454.31L76.7399 453.51C76.7399 453.51 73.2399 416.7 76.7399 395.39C80.2399 374.08 86.7399 376.58 86.7399 362.82C86.7399 349.06 83.4699 320.53 83.4699 320.53C83.4699 320.53 78.6899 312.74 77.0599 297.63C75.7299 285.36 81.5099 272.21 81.5099 272.21L87.2199 262.1L135.53 259.57L136.3 282.83Z" fill="#263238"/>
<path d="M136.3 282.83C136.3 282.83 136.3 282.31 136.3 281.3C136.3 280.29 136.24 278.79 136.2 276.82C136.11 272.87 135.96 267.05 135.78 259.53V259.42H135.66L87.35 261.88H87.25L87.19 261.97C85.42 265.11 83.47 268.54 81.47 272.08C79.9825 275.668 78.8211 279.383 78 283.18C77.0927 287.177 76.6863 291.272 76.79 295.37C77.0943 299.649 77.7634 303.895 78.79 308.06C79.7802 312.433 81.3367 316.659 83.42 320.63V320.53C84.25 327.99 85.02 335.72 85.67 343.68C85.99 347.68 86.27 351.68 86.47 355.79C86.57 357.79 86.65 359.89 86.66 361.96C86.66 362.96 86.66 364.03 86.6 365.06C86.5288 366.093 86.4019 367.121 86.22 368.14C85.8106 370.193 85.0853 372.17 84.07 374C83.07 375.87 82.07 377.72 81.07 379.67C79.2589 383.628 77.9391 387.792 77.14 392.07C75.4 400.67 75.05 409.61 74.95 418.62C74.95 430.51 75.51 442.19 76.49 453.48V453.72H76.72L98.62 454.52H98.83L98.88 454.31C105.23 429.7 111.15 406.7 116.37 386.02L118.26 378.37C118.59 377.1 118.8 375.84 119.19 374.64C119.58 373.44 120.02 372.25 120.48 371.09C121.42 368.77 122.48 366.52 123.48 364.33L124.26 362.7C124.537 362.168 124.784 361.62 125 361.06C125.45 359.95 125.9 358.86 126.35 357.77C129.46 349.705 131.774 341.355 133.26 332.84C135.402 320.709 136.506 308.418 136.56 296.1C136.62 287.48 136.27 282.8 136.27 282.8C136.27 282.8 136.27 283.09 136.27 283.66C136.27 284.23 136.27 285.1 136.33 286.22C136.39 288.47 136.43 291.79 136.33 296.1C136.237 308.408 135.124 320.687 133 332.81C131.48 341.298 129.135 349.617 126 357.65L124.66 360.92C124.44 361.48 124.19 362.01 123.92 362.55C123.65 363.09 123.39 363.64 123.13 364.19C122.13 366.38 121.07 368.63 120.13 370.96C119.66 372.13 119.21 373.32 118.82 374.54C118.43 375.76 118.2 377.05 117.88 378.29C117.25 380.81 116.62 383.35 115.97 385.94C110.66 406.6 104.75 429.6 98.42 454.21L98.68 454.02L76.78 453.21L77.04 453.45C76.04 442.18 75.46 430.51 75.5 418.64C75.6 409.64 75.95 400.74 77.68 392.2C78.4766 387.962 79.7828 383.835 81.57 379.91C82.47 377.98 83.57 376.15 84.57 374.25C85.5786 372.37 86.2935 370.346 86.69 368.25C86.8796 367.208 87.0098 366.157 87.08 365.1C87.08 364.1 87.18 363 87.14 361.97C87.14 359.89 87.05 357.82 86.95 355.77C86.75 351.67 86.46 347.63 86.13 343.65C85.4633 335.65 84.7066 327.927 83.86 320.48V320.42C81.776 316.5 80.2128 312.325 79.21 308C78.1892 303.864 77.5202 299.649 77.21 295.4C77.1023 291.34 77.4986 287.282 78.39 283.32C79.1957 279.561 80.3301 275.88 81.78 272.32L87.48 262.2L87.32 262.3L135.63 259.69L135.5 259.58C135.74 267.09 135.92 272.91 136.04 276.86C136.11 278.86 136.16 280.32 136.2 281.34C136.24 282.36 136.3 282.83 136.3 282.83Z" fill="#455A64"/>
<path d="M120.59 191.07C120.59 191.07 107.59 188.77 108.8 205.5C109.56 215.5 112.5 232.66 114.13 243.61C114.69 247.4 115.93 254.18 120.94 258.16L156.84 283L168.17 269.45L136.11 238.92L131.11 208.72L120.59 191.07Z" fill="#455A64"/>
<path d="M122.12 130.77C124.181 132.429 125.811 134.561 126.873 136.984C127.935 139.407 128.397 142.05 128.22 144.69C128.02 147.25 127.31 150.16 128.98 152.11C130.65 154.06 133.85 153.99 135.43 155.97C137.28 158.31 135.73 161.79 136.43 164.7C136.787 166.059 137.615 167.247 138.768 168.051C139.92 168.856 141.321 169.224 142.72 169.09C139.438 171.776 135.48 173.505 131.28 174.09L128 170C129.22 171.44 128.89 173.73 127.72 175.2C126.449 176.568 124.81 177.54 123 178C118.692 179.325 114.136 179.639 109.687 178.915C105.238 178.192 101.016 176.452 97.35 173.83" fill="#263238"/>
<path d="M74.0899 153.34C74.7299 151.34 75.8099 149.57 76.2399 147.56C77.1599 143.23 75.05 138.35 77.15 134.45C78.65 131.68 81.83 130.32 84.8499 129.39C87.8699 128.46 91.0899 127.68 93.3399 125.47C94.9799 123.85 95.9199 121.61 97.5599 119.99C99.8999 117.67 103.36 116.88 106.64 116.68C110.027 116.353 113.441 116.907 116.55 118.29C118.094 118.994 119.45 120.052 120.51 121.377C121.57 122.703 122.303 124.259 122.65 125.92C122.91 127.54 122.71 129.25 123.23 130.82C123.79 132.54 125.14 133.88 125.98 135.49C126.821 137.219 127.065 139.178 126.672 141.061C126.279 142.943 125.272 144.642 123.81 145.89L100.63 175.83C95.7599 177.67 83.9599 175.45 80.1999 171.83C76.4399 168.21 72.4799 158.29 74.0899 153.34Z" fill="#263238"/>
<path d="M123.2 142.09C122.2 135.29 117.07 127.26 110.32 128.5L89.48 135.5C87.48 135.88 88.9 139.23 89.1 141.3L93.63 188.3C93.63 188.3 90.81 190.3 89.81 189.92C89.7531 189.9 89.6913 189.898 89.6334 189.915C89.5755 189.932 89.5242 189.967 89.4868 190.014C89.4494 190.061 89.4277 190.119 89.4247 190.179C89.4217 190.24 89.4375 190.299 89.47 190.35C92 194 103.79 209.87 116 205C118.72 203.91 115.71 195.34 116 192.17L115.64 184.06C115.37 179.92 115.24 178.22 115.24 178.26C115.24 178.3 123.86 176.14 124.79 164.61C125.26 158.9 124.26 149.64 123.2 142.09Z" fill="#FFBF9D"/>
<path d="M121.75 152.55C121.781 152.931 121.663 153.308 121.42 153.603C121.177 153.898 120.829 154.087 120.45 154.13C120.265 154.16 120.076 154.152 119.894 154.107C119.713 154.063 119.541 153.982 119.391 153.87C119.241 153.758 119.115 153.617 119.02 153.456C118.926 153.294 118.864 153.116 118.84 152.93C118.809 152.549 118.927 152.172 119.17 151.877C119.413 151.582 119.76 151.393 120.14 151.35C120.325 151.32 120.514 151.328 120.696 151.373C120.877 151.417 121.048 151.498 121.199 151.61C121.349 151.722 121.475 151.863 121.569 152.024C121.664 152.186 121.726 152.364 121.75 152.55Z" fill="#263238"/>
<path d="M107.55 153.44C107.584 153.82 107.468 154.197 107.227 154.493C106.986 154.788 106.639 154.977 106.26 155.02C106.075 155.048 105.887 155.04 105.706 154.994C105.524 154.949 105.354 154.868 105.204 154.757C105.054 154.645 104.928 154.505 104.833 154.344C104.738 154.183 104.676 154.005 104.65 153.82C104.619 153.439 104.737 153.062 104.98 152.767C105.223 152.472 105.571 152.283 105.95 152.24C106.134 152.21 106.323 152.218 106.504 152.263C106.685 152.308 106.855 152.388 107.005 152.5C107.154 152.612 107.279 152.753 107.373 152.915C107.467 153.076 107.527 153.255 107.55 153.44Z" fill="#263238"/>
<path d="M122.27 147.73C122.11 148 120.75 147.14 119.05 147.39C117.35 147.64 116.26 148.8 116.05 148.59C115.84 148.38 116.05 148.03 116.54 147.5C117.155 146.809 117.997 146.36 118.913 146.234C119.829 146.108 120.761 146.312 121.54 146.81C122.1 147.2 122.35 147.61 122.27 147.73Z" fill="#263238"/>
<path d="M107 149C106.8 149.25 105.47 148.28 103.64 148.36C101.81 148.44 100.51 149.47 100.3 149.24C100.09 149.01 100.39 148.7 100.96 148.24C101.708 147.622 102.64 147.271 103.61 147.24C104.575 147.202 105.525 147.487 106.31 148.05C106.88 148.46 107.09 148.88 107 149Z" fill="#263238"/>
<path d="M112.73 159.77C113.537 159.44 114.385 159.219 115.25 159.11C115.64 159.04 116.02 158.93 116.06 158.65C116.065 158.232 115.939 157.823 115.7 157.48C115.25 156.54 114.78 155.55 114.28 154.48C112.28 150.25 110.83 146.77 111 146.69C111.17 146.61 112.92 149.97 114.9 154.19C115.38 155.24 115.84 156.19 116.27 157.19C116.562 157.654 116.68 158.207 116.6 158.75C116.554 158.896 116.475 159.03 116.37 159.141C116.264 159.252 116.134 159.337 115.99 159.39C115.773 159.464 115.548 159.511 115.32 159.53C114.469 159.712 113.6 159.793 112.73 159.77Z" fill="#263238"/>
<path d="M115.24 178.28C109.885 178.772 104.498 177.768 99.68 175.38C99.68 175.38 104.13 183.08 115.44 181.14L115.24 178.28Z" fill="#FF9A6C"/>
<path d="M107.94 164.35C108.118 163.955 108.394 163.611 108.74 163.35C109.164 163.148 109.645 163.102 110.1 163.22C110.775 163.319 111.4 163.635 111.88 164.12C112.115 164.365 112.281 164.668 112.36 164.999C112.44 165.329 112.429 165.675 112.33 166C112.15 166.66 111.17 167 110.5 167.14C109.806 167.241 109.098 167.096 108.5 166.73C108.24 166.612 108.013 166.431 107.838 166.204C107.664 165.978 107.548 165.712 107.5 165.43C107.544 165.036 107.697 164.663 107.94 164.35Z" fill="#FF9A6C"/>
<path d="M108.26 162.14C108.51 162.14 108.65 163.81 110.2 164.91C111.75 166.01 113.55 165.68 113.58 165.91C113.61 166.14 113.21 166.27 112.44 166.35C111.441 166.442 110.442 166.176 109.62 165.6C108.827 165.053 108.281 164.216 108.1 163.27C108 162.58 108.14 162.14 108.26 162.14Z" fill="#263238"/>
<path d="M106.86 142.85C106.73 143.28 105.15 143.2 103.32 143.57C101.49 143.94 100.04 144.57 99.77 144.18C99.65 144.01 99.87 143.59 100.44 143.13C101.204 142.561 102.087 142.175 103.024 142.002C103.96 141.828 104.923 141.872 105.84 142.13C106.54 142.33 106.91 142.64 106.86 142.85Z" fill="#263238"/>
<path d="M121.3 142C121.01 142.38 119.75 142.11 118.3 142.21C116.85 142.31 115.57 142.66 115.25 142.31C115.11 142.14 115.25 141.76 115.8 141.38C116.523 140.903 117.364 140.637 118.23 140.61C119.09 140.548 119.95 140.732 120.71 141.14C121.23 141.44 121.43 141.8 121.3 142Z" fill="#263238"/>
<path d="M84.87 137.14C85.87 135.52 87.81 134.69 89.61 134C97.3838 130.998 105.488 128.934 113.75 127.85C114.75 129.54 113.83 131.85 112.28 133.08C110.73 134.31 108.73 134.8 106.88 135.49C105.03 136.18 103.12 137.26 102.35 139.09C101.58 140.92 102.23 143.33 101.51 145.31C100.28 148.73 95.51 149.83 94.32 153.24C93.4 155.83 94.9 158.58 95.32 161.3C95.512 162.68 95.4074 164.086 95.0131 165.423C94.6188 166.76 93.9439 167.997 93.0335 169.052C92.123 170.107 90.9979 170.956 89.7333 171.542C88.4687 172.128 87.0937 172.438 85.7 172.45C85.14 162.657 84.5766 152.87 84.01 143.09C83.84 141.05 83.76 138.85 84.87 137.14Z" fill="#263238"/>
<path d="M65.15 161.87C66.7 160.48 68.64 159.28 69.25 157.3C70.15 154.41 67.83 151.02 69.33 148.39C70.69 145.99 74.7 146.12 75.97 143.67C76.97 141.75 75.82 140.06 76.19 138.38C76.56 136.7 78.96 135.23 80.66 135.43L94 154.8C95.24 161.3 96.49 164.8 95.1 168.56C94.1806 170.585 93.4864 172.704 93.03 174.88C92.73 177.08 93.3 179.57 95.09 180.88C87.09 181.51 79.61 177.33 72.69 173.28L65.4 169C64.6019 168.618 63.9138 168.04 63.4 167.32C62.31 165.54 63.61 163.25 65.15 161.87Z" fill="#263238"/>
<path d="M72.52 171.31C72.7991 171.4 73.0877 171.457 73.38 171.48C74.2142 171.56 75.0559 171.499 75.87 171.3C77.1695 170.989 78.3654 170.344 79.34 169.43C80.6272 168.191 81.4348 166.537 81.62 164.76C81.7402 163.73 81.6518 162.686 81.36 161.69C81.0014 160.629 80.5037 159.62 79.88 158.69C79.2186 157.746 78.7028 156.708 78.35 155.61C78.1625 155.049 78.1039 154.453 78.1783 153.866C78.2528 153.279 78.4584 152.717 78.78 152.22C79.5 151.22 80.85 151.01 82.11 150.51C82.7905 150.265 83.3824 149.823 83.81 149.24C84.2036 148.616 84.3957 147.887 84.36 147.15C84.187 145.738 83.8823 144.345 83.45 142.99C83.2964 142.332 83.2964 141.648 83.45 140.99C83.6261 140.327 84.0341 139.748 84.6 139.36C85.8168 138.658 87.1954 138.286 88.6 138.28C90.0536 138.232 91.4712 137.816 92.72 137.07C93.9351 136.329 94.9215 135.267 95.57 134C96.1022 132.784 96.4397 131.491 96.57 130.17C96.7087 128.947 96.97 127.741 97.35 126.57C97.7711 125.505 98.4117 124.541 99.23 123.74C100.739 122.308 102.688 121.427 104.76 121.24C106.488 121.092 108.222 121.439 109.76 122.24C110.917 122.832 111.96 123.624 112.84 124.58C113.576 125.414 114.213 126.33 114.74 127.31C114.74 127.31 114.74 127.24 114.67 127.1C114.588 126.901 114.494 126.708 114.39 126.52C114.008 125.794 113.542 125.116 113 124.5C112.12 123.506 111.071 122.676 109.9 122.05C108.346 121.196 106.58 120.804 104.81 120.92C102.638 121.079 100.587 121.979 99 123.47C98.1255 124.315 97.4433 125.338 97 126.47C96.6035 127.663 96.3287 128.892 96.18 130.14C96.0412 131.418 95.7038 132.666 95.18 133.84C94.5702 135.02 93.6506 136.012 92.52 136.71C91.3285 137.409 89.9806 137.797 88.6 137.84C87.0952 137.837 85.6172 138.237 84.32 139C83.671 139.441 83.2025 140.102 83 140.86C82.8247 141.6 82.8247 142.37 83 143.11C83.4234 144.44 83.7247 145.805 83.9 147.19C83.9412 147.833 83.7804 148.473 83.44 149.02C83.0537 149.527 82.5294 149.913 81.93 150.13C81.34 150.38 80.7 150.55 80.08 150.81C79.4344 151.054 78.865 151.464 78.43 152C78.0768 152.552 77.8505 153.176 77.7675 153.826C77.6845 154.476 77.7468 155.137 77.95 155.76C78.3244 156.893 78.8635 157.964 79.55 158.94C80.1591 159.824 80.6468 160.786 81 161.8C81.2833 162.746 81.3784 163.738 81.28 164.72C81.1161 166.43 80.359 168.029 79.14 169.24C78.2069 170.144 77.0565 170.791 75.8 171.12C74.7299 171.399 73.6151 171.464 72.52 171.31Z" fill="#455A64"/>
<path d="M61.86 157.54C61.7292 157.736 61.6406 157.958 61.6 158.19C61.467 158.876 61.5878 159.587 61.94 160.19C62.184 160.621 62.5267 160.987 62.94 161.26C63.4551 161.572 64.048 161.731 64.65 161.72C65.3815 161.704 66.0947 161.488 66.7118 161.094C67.3289 160.701 67.8264 160.146 68.15 159.49C68.5304 158.737 68.7257 157.904 68.72 157.06C68.6958 156.153 68.506 155.259 68.16 154.42C67.53 152.69 66.37 151 66.35 148.98C66.3122 148.483 66.375 147.983 66.5348 147.51C66.6946 147.038 66.9481 146.602 67.28 146.23C68.0908 145.561 69.1326 145.237 70.18 145.33C71.3455 145.415 72.5169 145.293 73.64 144.97C74.2284 144.73 74.7257 144.31 75.06 143.77C75.3818 143.233 75.5832 142.632 75.65 142.01C75.7076 140.816 75.6101 139.619 75.36 138.45C75.1809 137.353 75.2458 136.229 75.55 135.16C76.1168 133.119 77.4445 131.372 79.26 130.28C80.9833 129.402 82.8963 128.963 84.83 129C86.5484 129.004 88.2565 128.734 89.89 128.2C91.218 127.713 92.4352 126.965 93.47 126C94.2624 125.268 94.937 124.418 95.47 123.48C95.9391 122.702 96.2611 121.844 96.42 120.95C96.1223 121.794 95.7508 122.611 95.31 123.39C94.0501 125.493 92.1096 127.101 89.81 127.95C88.1902 128.446 86.5037 128.688 84.81 128.67C82.8201 128.614 80.8475 129.054 79.07 129.95C77.1609 131.07 75.7515 132.876 75.13 135C74.81 136.128 74.7383 137.312 74.92 138.47C75.154 139.601 75.2514 140.756 75.21 141.91C75.1863 142.459 75.0125 142.99 74.7074 143.447C74.4024 143.904 73.9778 144.268 73.48 144.5C72.4114 144.803 71.2975 144.915 70.19 144.83C69.0301 144.729 67.877 145.088 66.98 145.83C66.6137 146.247 66.3361 146.734 66.1642 147.262C65.9923 147.79 65.9296 148.347 65.98 148.9C66.0241 149.938 66.2722 150.958 66.71 151.9C67.1 152.8 67.53 153.64 67.86 154.48C68.1956 155.276 68.3852 156.127 68.42 156.99C68.4336 157.779 68.2624 158.559 67.92 159.27C67.6298 159.883 67.1772 160.405 66.6112 160.779C66.0453 161.152 65.3877 161.364 64.71 161.39C64.1541 161.41 63.6036 161.275 63.12 161C62.706 160.758 62.3615 160.414 62.12 160C61.7694 159.444 61.6244 158.782 61.71 158.13C61.76 157.77 61.89 157.55 61.86 157.54Z" fill="#263238"/>
<path d="M146.09 162.31C146.328 162.986 146.328 163.724 146.09 164.4C145.958 164.788 145.74 165.142 145.453 165.434C145.165 165.727 144.816 165.951 144.43 166.09C143.915 166.242 143.369 166.247 142.851 166.106C142.334 165.965 141.866 165.682 141.5 165.29C141.08 164.828 140.836 164.234 140.81 163.61C140.791 162.93 140.896 162.252 141.12 161.61C141.54 160.26 142.41 158.79 142.28 157.02C142.217 156.123 141.967 155.248 141.547 154.453C141.127 153.657 140.545 152.958 139.84 152.4C139.101 151.809 138.256 151.364 137.35 151.09C136.424 150.834 135.47 150.696 134.51 150.68C133.579 150.672 132.652 150.575 131.74 150.39C130.889 150.214 130.127 149.743 129.59 149.06C129.114 148.359 128.847 147.537 128.82 146.69C128.775 145.865 128.843 145.037 129.02 144.23C129.459 142.707 129.701 141.134 129.74 139.55C129.659 138.143 129.162 136.793 128.31 135.67C127.59 134.779 126.708 134.033 125.71 133.47C124.981 133.039 124.283 132.557 123.62 132.03C123.076 131.565 122.634 130.993 122.32 130.35C122.32 130.35 122.32 130.35 122.32 130.49C122.359 130.625 122.413 130.756 122.48 130.88C122.729 131.366 123.069 131.8 123.48 132.16C124.128 132.724 124.82 133.236 125.55 133.69C126.504 134.258 127.345 134.997 128.03 135.87C128.823 136.946 129.275 138.235 129.33 139.57C129.271 141.119 129.019 142.654 128.58 144.14C128.386 144.986 128.309 145.854 128.35 146.72C128.387 147.653 128.685 148.557 129.21 149.33C129.806 150.101 130.656 150.636 131.61 150.84C132.548 151.033 133.502 151.136 134.46 151.15C135.386 151.162 136.306 151.29 137.2 151.53C138.048 151.794 138.842 152.211 139.54 152.76C140.197 153.278 140.74 153.927 141.134 154.665C141.528 155.404 141.765 156.216 141.83 157.05C141.97 158.66 141.17 160.05 140.73 161.5C140.499 162.196 140.397 162.928 140.43 163.66C140.473 164.359 140.76 165.02 141.24 165.53C141.651 165.96 142.174 166.266 142.751 166.413C143.327 166.56 143.933 166.541 144.5 166.36C144.914 166.2 145.286 165.947 145.587 165.621C145.889 165.295 146.112 164.905 146.24 164.48C146.421 163.959 146.449 163.397 146.32 162.86C146.276 162.664 146.199 162.478 146.09 162.31Z" fill="#263238"/>
<path d="M136.53 240.64V229.58C137.77 223.37 137.18 216.01 134.29 210.34C132.193 206.685 129.876 203.162 127.35 199.79L116.35 185.5C110.29 189.91 100.8 186.72 92.66 183.76C92.66 183.76 84.66 188.21 80.88 192.39C76.95 196.79 90.39 251.84 90.39 251.84C84.3 264.02 76.44 274.84 75.25 285.94L138.85 288.39L136.15 259.23L136.53 240.64Z" fill="#455A64"/>
<path d="M135.65 259.54C135.587 259.127 135.57 258.707 135.6 258.29C135.6 257.38 135.6 256.29 135.6 254.9C135.65 251.9 135.71 248.03 135.78 243.72C135.85 239.41 135.98 235.4 136.12 232.54C136.19 231.11 136.26 229.95 136.32 229.15C136.327 228.735 136.381 228.323 136.48 227.92C136.52 228.332 136.52 228.748 136.48 229.16C136.48 230.07 136.48 231.16 136.48 232.55C136.43 235.55 136.36 239.42 136.29 243.73C136.22 248.04 136.1 252.05 135.96 254.91C135.89 256.34 135.82 257.5 135.75 258.3C135.766 258.716 135.732 259.132 135.65 259.54Z" fill="#263238"/>
<path d="M164.7 269.6C164.7 269.6 170.9 269.94 174.7 272.34C178.5 274.74 184.7 278.48 187.25 283.11C188.42 285.24 185.09 285.69 183.44 284.46C181.79 283.23 179.28 280.89 178.03 280.61L176.78 280.32C177.921 282.903 179.193 285.426 180.59 287.88C181.88 289.88 183 293.2 179.12 293.35C179.12 293.35 176.51 296.75 173.87 294.23C173.87 294.23 171.81 297.32 168.49 293.04C168.49 293.04 166.55 295.49 165.75 294.55C164.95 293.61 162.3 292.13 161.53 289.07C160.375 285.508 159.04 282.007 157.53 278.58L164.7 269.6Z" fill="#FFBF9D"/>
<path d="M303.51 183.66C304.2 183.66 332.59 180.66 332.59 180.66C332.59 180.66 335 169.12 334.87 166.12C334.74 163.12 332.72 143.27 332.72 143.27L343.35 138.27C343.35 138.27 357.56 186.19 354.46 190.17C351.36 194.15 345.53 197.72 345.03 197.74C344.53 197.76 317.52 209.74 298.73 203.51C279.94 197.28 303.51 183.66 303.51 183.66Z" fill="#FFBF9D"/>
<path d="M278.63 209.53C282.81 213.68 290.01 217.13 302.03 214.13C325.79 208.19 343.6 203.13 350.68 199.33C357.76 195.53 355 178.55 355.6 177.78C357.39 175.46 355.42 170.48 352.87 169.7C345.6 167.5 332.95 168.37 332.31 169.03C328.58 172.95 331.98 177.71 331.98 177.71L300.65 181.82C296.798 181.639 292.938 181.884 289.14 182.55" fill="#455A64"/>
<path d="M289.14 182.55L289.89 182.39C290.39 182.3 291.13 182.17 292.11 182.05C294.945 181.693 297.805 181.573 300.66 181.69L331.98 177.49L331.83 177.84C330.801 176.326 330.295 174.518 330.39 172.69C330.475 171.745 330.784 170.833 331.29 170.03C331.544 169.627 331.832 169.245 332.15 168.89C332.275 168.797 332.413 168.723 332.56 168.67L332.92 168.58C333.16 168.52 333.39 168.5 333.62 168.45C337.5 168.003 341.414 167.922 345.31 168.21C347.355 168.335 349.388 168.615 351.39 169.05C351.89 169.16 352.39 169.31 352.91 169.44C353.443 169.61 353.932 169.897 354.34 170.28C355.135 171.036 355.741 171.967 356.11 173C356.507 174.034 356.647 175.149 356.52 176.25C356.428 176.823 356.214 177.369 355.89 177.85C355.8 177.95 355.81 178.22 355.8 178.48V179.28C355.87 181.43 355.97 183.62 355.91 185.82C355.926 188.943 355.415 192.047 354.4 195C353.878 196.48 352.983 197.799 351.8 198.83C351.188 199.309 350.515 199.705 349.8 200.01C349.14 200.36 348.44 200.63 347.8 200.95C345.06 202.12 342.31 203.08 339.6 203.95C336.89 204.82 334.23 205.66 331.6 206.43C321.14 209.43 311.6 211.86 303.66 213.85C301.763 214.351 299.84 214.749 297.9 215.04C296.161 215.282 294.405 215.376 292.65 215.32C289.831 215.26 287.05 214.655 284.46 213.54C282.836 212.823 281.321 211.881 279.96 210.74C279.481 210.353 279.033 209.928 278.62 209.47C278.62 209.47 279.08 209.91 280.03 210.66C281.408 211.759 282.929 212.667 284.55 213.36C287.124 214.422 289.876 214.989 292.66 215.03C294.396 215.072 296.132 214.965 297.85 214.71C299.777 214.406 301.687 213.999 303.57 213.49C311.57 211.49 321.03 209.03 331.46 205.97C334.07 205.2 336.73 204.38 339.46 203.48C342.19 202.58 344.9 201.63 347.61 200.48C348.27 200.17 348.96 199.9 349.61 199.55C350.278 199.256 350.906 198.88 351.48 198.43C352.597 197.46 353.441 196.216 353.93 194.82C354.915 191.905 355.405 188.846 355.38 185.77C355.44 183.58 355.38 181.41 355.27 179.25V178.43C355.27 178.29 355.27 178.15 355.27 178C355.262 177.92 355.262 177.84 355.27 177.76C355.292 177.698 355.319 177.638 355.35 177.58L355.4 177.5C355.681 177.09 355.866 176.622 355.94 176.13C356.057 175.113 355.923 174.083 355.55 173.13C355.214 172.175 354.659 171.312 353.93 170.61C353.576 170.278 353.152 170.029 352.69 169.88C352.19 169.75 351.69 169.61 351.2 169.49C349.224 169.062 347.218 168.784 345.2 168.66C341.345 168.365 337.471 168.439 333.63 168.88C333.4 168.88 333.17 168.94 332.95 169L332.63 169.07C332.56 169.097 332.494 169.131 332.43 169.17C332.129 169.498 331.858 169.853 331.62 170.23C331.144 170.966 330.856 171.807 330.78 172.68C330.693 174.399 331.163 176.1 332.12 177.53L332.32 177.84H331.97L300.63 181.84C297.791 181.696 294.946 181.776 292.12 182.08C291.12 182.18 290.39 182.29 289.89 182.36C289.39 182.43 289.14 182.55 289.14 182.55Z" fill="#263238"/>
<path d="M204.313 215.118L191.552 192.19L432.922 57.8449C435.703 56.2971 438.985 55.9173 442.046 56.7892C445.107 57.6611 447.696 59.7132 449.244 62.4941L450.338 64.4601C451.886 67.241 452.265 70.5228 451.394 73.5836C450.522 76.6445 448.47 79.2336 445.689 80.7814L204.318 215.127L204.313 215.118Z" fill="#FD961A"/>
<path d="M406.714 93.8623L377.159 40.7632C377.016 40.5061 376.925 40.2234 376.891 39.9312C376.857 39.639 376.881 39.343 376.962 39.0601C377.043 38.7772 377.178 38.5129 377.361 38.2824C377.544 38.0519 377.77 37.8596 378.027 37.7165L391.588 30.1686C391.845 30.0255 392.128 29.9345 392.42 29.9007C392.712 29.8669 393.008 29.8909 393.291 29.9715C393.574 30.0521 393.838 30.1876 394.069 30.3704C394.299 30.5531 394.491 30.7794 394.635 31.0364L424.189 84.1356L406.714 93.8623Z" fill="#FD961A"/>
<path d="M348.573 69.1365L370.113 107.836C370.983 109.399 372.956 109.961 374.519 109.091L386.333 102.516C387.896 101.646 388.458 99.6727 387.588 98.1091L366.048 59.4098C365.178 57.8462 363.205 57.2842 361.642 58.1545L349.828 64.7297C348.265 65.6 347.703 67.5729 348.573 69.1365Z" fill="#FD961A"/>
<path d="M367.591 66.8765L380.926 90.8353L408.065 75.7297L394.73 51.7709L367.591 66.8765Z" fill="#FD961A"/>
<path d="M429.39 59.86C429.46 59.98 382.09 86.48 323.61 119.04C265.13 151.6 217.61 177.9 217.61 177.77C217.61 177.64 264.9 151.15 323.4 118.58C381.9 86.01 429.32 59.73 429.39 59.86Z" fill="#263238"/>
<path d="M106.56 259.41C124.36 291.41 161.89 304.41 190.39 288.56C218.89 272.71 227.59 233.91 209.79 201.95C191.99 169.99 154.47 156.95 125.96 172.8C97.45 188.65 88.77 227.45 106.56 259.41ZM194.35 210.55C206.82 232.95 200.73 260.12 180.75 271.23C160.77 282.34 134.48 273.23 122.01 250.81C109.54 228.39 115.63 201.24 135.6 190.12C155.57 179 181.88 188.15 194.35 210.55Z" fill="#FD961A"/>
<path d="M232.182 169.299L245.352 192.961C247.103 196.107 251.074 197.238 254.22 195.487L255.286 194.893C258.432 193.142 259.563 189.172 257.812 186.026L244.642 162.364C242.891 159.217 238.921 158.086 235.774 159.838L234.708 160.431C231.562 162.182 230.431 166.153 232.182 169.299Z" fill="#FD961A"/>
<path d="M257.475 155.22L270.645 178.882C272.396 182.028 276.367 183.159 279.513 181.408L280.579 180.815C283.725 179.063 284.856 175.093 283.105 171.947L269.935 148.285C268.184 145.139 264.214 144.008 261.067 145.759L260.001 146.352C256.855 148.103 255.724 152.074 257.475 155.22Z" fill="#FD961A"/>
<path d="M244.36 162C244.49 161.93 247.54 167.3 251.19 174C254.84 180.7 257.69 186.16 257.56 186.23C257.43 186.3 254.38 180.94 250.73 174.23C247.08 167.52 244.23 162 244.36 162Z" fill="#263238"/>
<path d="M232.75 170.25C232.88 170.18 235.86 175.31 239.42 181.69C242.98 188.07 245.75 193.32 245.63 193.39C245.51 193.46 242.52 188.33 239 182C235.48 175.67 232.63 170.32 232.75 170.25Z" fill="#263238"/>
<path d="M269.81 148.07C269.94 148 273.05 153.34 276.76 160C280.47 166.66 283.37 172.13 283.24 172.2C283.11 172.27 280.01 166.92 276.3 160.26C272.59 153.6 269.69 148.14 269.81 148.07Z" fill="#263238"/>
<path d="M257.6 155.44C257.72 155.37 260.77 160.68 264.39 167.3C268.01 173.92 270.86 179.3 270.73 179.41C270.6 179.52 267.57 174.17 263.94 167.55C260.31 160.93 257.47 155.51 257.6 155.44Z" fill="#263238"/>
<path d="M330.13 119.37C331.294 119.507 332.468 119.206 333.423 118.525C334.377 117.844 335.044 116.833 335.294 115.687C335.543 114.542 335.358 113.344 334.773 112.328C334.188 111.312 333.246 110.55 332.13 110.19C332.851 109.451 333.322 108.505 333.475 107.484C333.629 106.463 333.457 105.42 332.985 104.502C332.513 103.584 331.764 102.838 330.844 102.369C329.924 101.9 328.88 101.733 327.86 101.89C327.818 100.875 327.514 99.8874 326.978 99.0243C326.441 98.1612 325.691 97.4516 324.799 96.9644C323.907 96.4772 322.904 96.2291 321.888 96.2441C320.872 96.2591 319.877 96.5367 319 97.05C317.856 96.115 316.433 95.5893 314.956 95.5567C313.479 95.5241 312.034 95.9864 310.85 96.87C309.855 96.6801 308.826 96.8159 307.915 97.2571C307.003 97.6983 306.258 98.4215 305.79 99.3194C305.322 100.217 305.156 101.242 305.316 102.242C305.477 103.242 305.955 104.163 306.68 104.87" fill="#263238"/>
<path d="M309.84 101.53H310.84C315.882 101.534 320.738 103.437 324.44 106.86C328.143 110.282 330.42 114.974 330.82 120C331.57 129.69 332.27 140.4 332.19 145.6C332 156.4 321.26 158 321.26 158L322.13 170.94L296 170.09L293.83 123.19C292.91 112 298.64 102.15 309.84 101.53Z" fill="#FFBF9D"/>
<path d="M321.35 158C316.351 157.986 311.461 156.539 307.26 153.83C307.26 153.83 310.72 161.98 321.46 161.04L321.35 158Z" fill="#FF9A6C"/>
<path d="M324.91 130.15C324.913 130.551 324.758 130.936 324.48 131.224C324.201 131.512 323.821 131.68 323.42 131.69C323.225 131.704 323.029 131.678 322.843 131.616C322.658 131.553 322.487 131.454 322.34 131.325C322.193 131.195 322.073 131.038 321.987 130.862C321.901 130.687 321.851 130.495 321.84 130.3C321.84 129.899 321.995 129.514 322.273 129.225C322.55 128.936 322.929 128.766 323.33 128.75C323.526 128.736 323.723 128.762 323.909 128.825C324.095 128.889 324.266 128.988 324.413 129.119C324.561 129.249 324.68 129.407 324.765 129.584C324.851 129.761 324.9 129.954 324.91 130.15Z" fill="#263238"/>
<path d="M328.49 125.29C328.3 125.49 327.13 124.63 325.49 124.63C323.85 124.63 322.62 125.45 322.44 125.25C322.26 125.05 322.55 124.8 323.08 124.41C323.797 123.917 324.65 123.659 325.52 123.67C326.38 123.666 327.218 123.94 327.91 124.45C328.41 124.84 328.58 125.21 328.49 125.29Z" fill="#263238"/>
<path d="M310 129.43C310.008 129.837 309.855 130.23 309.574 130.524C309.293 130.819 308.907 130.99 308.5 131C308.305 131.014 308.109 130.988 307.923 130.926C307.738 130.863 307.567 130.764 307.42 130.635C307.273 130.505 307.153 130.348 307.067 130.172C306.981 129.997 306.931 129.805 306.92 129.61C306.917 129.208 307.071 128.822 307.35 128.532C307.628 128.242 308.009 128.073 308.41 128.06C308.604 128.045 308.8 128.069 308.985 128.129C309.171 128.19 309.342 128.287 309.49 128.414C309.638 128.542 309.759 128.697 309.846 128.871C309.934 129.046 309.986 129.235 310 129.43Z" fill="#263238"/>
<path d="M312.23 125.55C312.04 125.75 310.87 124.89 309.23 124.89C307.59 124.89 306.36 125.71 306.18 125.51C306 125.31 306.29 125.06 306.82 124.67C307.537 124.177 308.39 123.919 309.26 123.93C310.12 123.926 310.958 124.2 311.65 124.71C312.15 125.1 312.32 125.46 312.23 125.55Z" fill="#263238"/>
<path d="M318.19 137.84C319.062 137.566 319.966 137.404 320.88 137.36C321.3 137.36 321.7 137.24 321.78 136.95C321.815 136.515 321.718 136.079 321.5 135.7L320.26 132.48C318.54 127.89 317.26 124.12 317.48 124.06C317.7 124 319.21 127.65 320.93 132.23C321.34 133.36 321.74 134.44 322.12 135.47C322.379 135.983 322.454 136.569 322.33 137.13C322.267 137.278 322.172 137.41 322.05 137.516C321.929 137.621 321.785 137.698 321.63 137.74C321.4 137.808 321.16 137.842 320.92 137.84C320.013 137.953 319.096 137.953 318.19 137.84Z" fill="#263238"/>
<path d="M313.68 119.19C313.46 119.61 312.05 119.19 310.3 119.09C308.55 118.99 307.09 119.32 306.93 118.88C306.86 118.67 307.17 118.3 307.8 117.96C308.613 117.559 309.515 117.373 310.42 117.42C311.317 117.452 312.19 117.721 312.95 118.2C313.52 118.59 313.78 119 313.68 119.19Z" fill="#263238"/>
<path d="M328.59 118.48C328.24 118.85 326.87 118.48 325.23 118.48C323.59 118.48 322.23 118.73 321.88 118.33C321.74 118.14 321.96 117.76 322.57 117.41C323.41 116.97 324.352 116.759 325.3 116.8C326.243 116.813 327.165 117.079 327.97 117.57C328.55 117.91 328.74 118.29 328.59 118.48Z" fill="#263238"/>
<path d="M329.8 115.1C329.8 115.1 326.98 108.35 323.73 106.77C319.8 104.85 318.1 109.16 314.35 108.1C310.6 107.04 306.85 105.21 303.01 108.1C298.81 111.26 300.77 113.49 300.49 118.27C299.39 137.63 295.83 143.09 294.86 133.97C294.75 132.97 291.98 132.17 291.58 127.97C291.06 122.5 290.87 115.85 292.11 111.97C293.11 108.7 295.02 106.44 298.37 103.97C303.67 100.05 310.93 99.97 315.86 100.5C320.79 101.03 330.27 106.66 329.8 115.1Z" fill="#263238"/>
<path d="M295.54 133.67C295.529 133.275 295.438 132.886 295.272 132.527C295.106 132.169 294.87 131.847 294.576 131.583C294.282 131.318 293.938 131.116 293.564 130.988C293.19 130.86 292.794 130.81 292.4 130.84C290.4 131.03 288.15 132.16 288.27 136.31C288.48 143.67 295.83 141.94 295.84 141.72C295.85 141.5 295.66 136.75 295.54 133.67Z" fill="#FFBF9D"/>
<path d="M294.15 139C294.15 139 294.03 139.1 293.81 139.2C293.511 139.337 293.171 139.355 292.86 139.25C292.374 138.963 291.974 138.551 291.702 138.056C291.429 137.562 291.294 137.004 291.31 136.44C291.272 135.812 291.374 135.183 291.61 134.6C291.673 134.369 291.792 134.158 291.956 133.984C292.12 133.809 292.324 133.678 292.55 133.6C292.697 133.555 292.854 133.564 292.995 133.624C293.136 133.685 293.251 133.793 293.32 133.93C293.42 134.13 293.38 134.28 293.42 134.29C293.46 134.3 293.57 134.16 293.5 133.86C293.46 133.678 293.353 133.517 293.2 133.41C293.099 133.336 292.984 133.282 292.862 133.253C292.74 133.224 292.614 133.22 292.49 133.24C292.189 133.308 291.91 133.452 291.681 133.659C291.451 133.865 291.279 134.127 291.18 134.42C290.883 135.064 290.749 135.772 290.79 136.48C290.88 137.96 291.68 139.33 292.79 139.61C292.988 139.662 293.196 139.669 293.396 139.629C293.597 139.589 293.787 139.504 293.95 139.38C294.15 139.18 294.18 139 294.15 139Z" fill="#FF9A6C"/>
<path d="M295.73 119.41C296.63 120.144 297.699 120.642 298.84 120.86C299.413 120.95 299.999 120.829 300.49 120.52C300.981 120.211 301.343 119.735 301.51 119.18C301.6 118.67 301.51 118.07 301.81 117.68C302.11 117.29 302.96 117.36 303.57 117.43C305.71 117.66 308.22 115.3 308.77 113.22C309.048 113.619 309.467 113.897 309.943 113.997C310.419 114.097 310.915 114.013 311.33 113.76C312.01 113.344 312.613 112.813 313.11 112.19C313.4 111.793 313.781 111.472 314.222 111.255C314.662 111.037 315.149 110.929 315.64 110.94C316.158 111.119 316.695 111.236 317.24 111.29C318.24 111.21 318.68 110.08 318.83 109.12C318.98 108.16 319.1 107.05 319.92 106.53C320.762 106.2 321.692 106.175 322.55 106.46C323.44 106.6 324.55 106.39 324.82 105.52C324.857 105.288 324.846 105.05 324.79 104.822C324.733 104.593 324.631 104.378 324.49 104.19C323.895 103.298 323.016 102.633 321.996 102.303C320.976 101.972 319.875 101.996 318.87 102.37C318.516 101.139 317.804 100.042 316.824 99.2173C315.844 98.3928 314.641 97.8786 313.368 97.7402C312.095 97.6019 310.81 97.8456 309.675 98.4404C308.541 99.0352 307.61 99.9541 307 101.08C306.221 100.367 305.281 99.8523 304.261 99.5807C303.24 99.3091 302.169 99.2883 301.139 99.5202C300.108 99.752 299.149 100.229 298.343 100.912C297.537 101.595 296.908 102.462 296.51 103.44C295.61 103.2 294.659 103.23 293.775 103.526C292.892 103.822 292.115 104.372 291.542 105.106C290.968 105.841 290.624 106.727 290.55 107.656C290.477 108.585 290.679 109.515 291.13 110.33C290.445 110.668 289.857 111.175 289.421 111.803C288.986 112.431 288.717 113.16 288.64 113.92C288.64 115.44 290.09 116.92 291.56 116.56C291.255 117.159 291.191 117.852 291.381 118.497C291.571 119.141 292.001 119.689 292.582 120.027C293.163 120.364 293.851 120.467 294.505 120.313C295.16 120.16 295.73 119.761 296.1 119.2" fill="#263238"/>
<path d="M319.41 104.53C319.41 104.53 319.41 104.53 319.41 104.67C319.41 104.81 319.41 104.89 319.36 105.06C319.257 105.559 319.074 106.038 318.82 106.48C318.414 107.172 317.857 107.763 317.19 108.21C316.309 108.811 315.256 109.109 314.19 109.06L314.31 108.9C314.526 109.56 314.472 110.279 314.16 110.9C313.829 111.558 313.405 112.164 312.9 112.7C312.655 113.012 312.376 113.297 312.07 113.55C311.526 113.908 310.872 114.061 310.226 113.982C309.58 113.904 308.982 113.598 308.54 113.12L308.81 113.04C308.707 113.804 308.444 114.538 308.039 115.194C307.634 115.851 307.096 116.415 306.46 116.85C305.761 117.37 304.911 117.647 304.04 117.64C303.223 117.595 302.419 117.416 301.66 117.11L301.86 117.02C301.475 117.911 300.873 118.691 300.11 119.29C299.762 119.588 299.351 119.805 298.908 119.925C298.465 120.044 298.001 120.063 297.55 119.98C296.777 119.812 296.069 119.421 295.515 118.856C294.961 118.291 294.583 117.576 294.43 116.8L294.6 116.88C293.822 117.283 292.93 117.41 292.07 117.24C291.43 117.118 290.827 116.847 290.31 116.45C289.988 116.198 289.711 115.894 289.49 115.55C289.409 115.431 289.348 115.299 289.31 115.16C289.589 115.62 289.952 116.023 290.38 116.35C290.889 116.719 291.479 116.962 292.1 117.06C292.917 117.215 293.762 117.08 294.49 116.68L294.63 116.6V116.76C294.781 117.483 295.14 118.146 295.662 118.668C296.184 119.19 296.847 119.549 297.57 119.7C297.982 119.772 298.405 119.751 298.808 119.639C299.212 119.526 299.584 119.325 299.9 119.05C300.616 118.48 301.18 117.742 301.54 116.9L301.6 116.77H301.74C302.464 117.061 303.231 117.23 304.01 117.27C304.816 117.276 305.602 117.02 306.25 116.54C306.849 116.129 307.356 115.597 307.738 114.979C308.12 114.361 308.37 113.67 308.47 112.95V112.6L308.7 112.87C308.96 113.157 309.286 113.377 309.651 113.509C310.015 113.642 310.406 113.683 310.79 113.63C311.148 113.582 311.49 113.452 311.79 113.25C312.079 113.017 312.341 112.752 312.57 112.46C313.064 111.95 313.482 111.37 313.81 110.74C313.957 110.459 314.047 110.152 314.075 109.836C314.102 109.52 314.067 109.202 313.97 108.9L313.91 108.72H314.1C315.121 108.783 316.136 108.513 316.99 107.95C317.646 107.527 318.2 106.964 318.61 106.3C318.979 105.762 319.25 105.163 319.41 104.53Z" fill="#455A64"/>
<path d="M318.17 143.33C318.11 143.06 316.32 143.5 314.66 142.28C313 141.06 312.73 139.1 312.48 139.15C312.23 139.2 312.23 139.67 312.41 140.48C312.656 141.537 313.269 142.472 314.14 143.12C314.972 143.74 316.011 144.012 317.04 143.88C317.81 143.76 318.21 143.45 318.17 143.33Z" fill="#263238"/>
<path d="M373.63 423.12L380.73 447.31C380.73 447.31 407.73 448.21 409.46 452.56L363 468L350.38 430.75L373.63 423.12Z" fill="#455A64"/>
<path d="M365.71 450.08C365.309 450.365 365.027 450.788 364.919 451.267C364.81 451.747 364.881 452.25 365.12 452.68C365.389 453.091 365.805 453.384 366.283 453.497C366.762 453.611 367.265 453.537 367.69 453.29C368.115 452.987 368.413 452.537 368.525 452.027C368.638 451.517 368.558 450.984 368.3 450.53C367.974 450.129 367.506 449.87 366.993 449.807C366.481 449.743 365.964 449.881 365.55 450.19" fill="#E0E0E0"/>
<path d="M406.84 450.81C406.84 450.81 409.21 451.02 409.46 452.56L363 468L361.88 464.19L406.8 450.79" fill="#263238"/>
<path d="M381.4 446.82C381.47 447.05 380.4 447.53 379.5 448.63C378.6 449.73 378.35 450.88 378.11 450.86C377.87 450.84 377.78 449.42 378.86 448.11C379.94 446.8 381.38 446.6 381.4 446.82Z" fill="white"/>
<path d="M386.94 447.21C387.07 447.42 386.22 448.13 385.76 449.34C385.3 450.55 385.43 451.65 385.2 451.71C384.97 451.77 384.4 450.54 384.99 449.04C385.58 447.54 386.87 447 386.94 447.21Z" fill="white"/>
<path d="M391.65 452.12C391.46 452.24 390.77 451.21 390.94 449.78C391.11 448.35 392 447.49 392.16 447.65C392.32 447.81 391.88 448.65 391.76 449.87C391.64 451.09 391.87 452 391.65 452.12Z" fill="white"/>
<path d="M379.17 441.49C379.17 441.73 378 441.76 376.75 442.27C375.5 442.78 374.63 443.52 374.45 443.37C374.27 443.22 374.96 442.09 376.45 441.5C377.94 440.91 379.23 441.27 379.17 441.49Z" fill="white"/>
<path d="M265.29 423.33L255.18 446.43C255.18 446.43 275.27 464.43 273.82 468.91L228.32 450.91L242.59 414.27L265.29 423.33Z" fill="#455A64"/>
<path d="M241.89 438.9C241.401 438.861 240.914 439.004 240.523 439.301C240.132 439.598 239.864 440.028 239.77 440.51C239.714 440.998 239.846 441.489 240.14 441.883C240.434 442.277 240.866 442.544 241.35 442.63C241.869 442.669 242.385 442.515 242.798 442.197C243.211 441.88 243.493 441.422 243.59 440.91C243.59 439.91 242.68 438.77 241.7 438.91" fill="#E0E0E0"/>
<path d="M272.93 465.89C272.93 465.89 274.61 467.58 273.82 468.89L228.32 450.89L229.91 447.26L272.91 465.86" fill="#263238"/>
<path d="M256 446.49C255.91 446.71 254.76 446.37 253.38 446.65C252 446.93 251.05 447.65 250.88 447.47C250.71 447.29 251.55 446.15 253.22 445.84C254.89 445.53 256.14 446.3 256 446.49Z" fill="white"/>
<path d="M260 450.35C260 450.58 258.86 450.58 257.73 451.22C256.6 451.86 256 452.77 255.73 452.68C255.46 452.59 255.87 451.27 257.28 450.5C258.69 449.73 260.08 450.14 260 450.35Z" fill="white"/>
<path d="M260.46 457.13C260.24 457.13 260.37 455.87 261.46 454.88C262.55 453.89 263.74 453.81 263.76 454.03C263.78 454.25 262.88 454.65 262.03 455.48C261.18 456.31 260.69 457.2 260.46 457.13Z" fill="white"/>
<path d="M257.73 441C257.56 441.16 256.66 440.46 255.37 440C254.08 439.54 252.95 439.6 252.91 439.37C252.87 439.14 254.12 438.71 255.63 439.21C257.14 439.71 257.91 440.84 257.73 441Z" fill="white"/>
<path d="M282.32 296.43L266.38 361.09C266.38 361.09 237.63 409.49 232.76 433.71L259.06 444.05C259.06 444.05 278.19 397.4 283.8 388.84C286.324 385.004 289.225 381.429 292.46 378.17C294.563 376.084 296.072 373.474 296.83 370.61L308.9 324.48L282.32 296.43Z" fill="#263238"/>
<path d="M275.53 286.09C275.53 286.09 277.75 303.41 294.42 311.09L329.54 368.29C329.54 368.29 332.29 386.89 337.54 402.56C342.79 418.23 353.4 448.43 353.4 448.43L382.29 437.63L363.88 374.69L360.88 352.86L332.22 279.86L307.6 265.1L275.53 286.09Z" fill="#263238"/>
<path d="M275.53 286.09L276.06 285.73L277.65 284.67L283.89 280.55L307.55 265L307.63 264.95L307.71 265L332.35 279.73V279.79L361.07 352.72V352.77C362.02 359.67 363.07 367.06 364.07 374.6C369.07 391.6 374.37 409.79 379.85 428.53C380.737 431.55 381.617 434.55 382.49 437.53L382.56 437.76L382.33 437.84L353.44 448.64L353.19 448.73L353.11 448.48C348.11 433.97 343.27 420 338.7 406.75C337.55 403.44 336.42 400.16 335.48 396.88C334.54 393.6 333.69 390.34 332.92 387.12C331.4 380.68 330.18 374.39 329.22 368.29V368.37L294.3 311.15L294.36 311.2C290.136 309.225 286.385 306.368 283.36 302.82C281.142 300.216 279.323 297.297 277.96 294.16C277.117 292.223 276.447 290.215 275.96 288.16C275.79 287.48 275.69 286.95 275.63 286.59C275.57 286.23 275.56 286.05 275.56 286.05C275.56 286.05 275.56 286.23 275.67 286.58C275.78 286.93 275.84 287.46 276.03 288.15C276.546 290.179 277.235 292.159 278.09 294.07C279.47 297.175 281.296 300.063 283.51 302.64C286.546 306.151 290.296 308.973 294.51 310.92L329.7 368.08V368.13C330.7 374.21 331.9 380.49 333.42 386.92C334.19 390.13 335.03 393.38 335.98 396.65C336.93 399.92 338.05 403.18 339.2 406.49C343.79 419.74 348.62 433.71 353.64 448.21L353.31 448.06L382.2 437.26L382.04 437.57C381.173 434.59 380.293 431.59 379.4 428.57L363.64 374.63C362.64 367.09 361.58 359.7 360.64 352.8V352.86L332.03 279.86L332.11 279.95L307.51 265.16H307.66L284 280.64L277.7 284.7L276.08 285.75L275.53 286.09Z" fill="#455A64"/>
<path d="M291 162.52C291 162.52 282.58 169 278.49 176.24C273.59 184.91 273.06 197.76 272.91 217.72C272.76 236.18 275.52 241.31 274.46 248.27C272.37 261.86 270.82 307.47 270.82 307.47C270.82 307.47 297.82 297.1 303.06 292.47L308.33 287.89L342.12 299.06L335.3 257.54L330.62 205.79L324.62 178.34L323.62 167.57L294.6 155.91L291 162.52Z" fill="#455A64"/>
<path d="M322.53 167C322.88 167.07 321.7 169.44 319.62 172.92L319.53 173.06L319.37 173C316.44 171.86 312.56 170.43 308.32 168.88C303.54 167.14 299.22 165.52 296.13 164.26C294.58 163.63 293.34 163.1 292.49 162.71C292.039 162.535 291.604 162.321 291.19 162.07C291.664 162.176 292.127 162.33 292.57 162.53L296.26 163.92L308.5 168.39C312.74 169.94 316.61 171.39 319.5 172.63L319.26 172.71C321.44 169.3 322.73 167.05 322.53 167Z" fill="#263238"/>
<path d="M357.45 145.44C357.45 145.44 355.31 142.11 353.29 139.04C351.27 135.97 348.21 134.46 347.72 132.86C347.23 131.26 344.54 124.13 344.11 122.36C343.736 120.646 343.562 118.894 343.59 117.14C343.59 117.14 345.8 116.2 346.86 119.36C347.5 121.26 349.54 127.71 349.98 128.03C350.42 128.35 350.98 127.88 350.98 127.88C350.072 125.465 349.287 123.005 348.63 120.51C348.53 119.34 348.94 111.58 348.94 111.58C349.488 111.469 350.058 111.559 350.546 111.832C351.034 112.106 351.408 112.545 351.6 113.07C352.65 115.07 352.69 120.07 352.69 120.07L354.28 125.65L353.72 120.13L354.52 109.98C355.297 110.091 356.021 110.438 356.593 110.975C357.166 111.512 357.559 112.212 357.72 112.98C358.39 115.72 357.5 119.54 357.95 120.35C358.4 121.16 358.89 126.06 358.89 126.06C358.89 126.06 359.44 114.16 360.71 113.82C361.98 113.48 363.02 114.74 362.84 117.14C362.66 119.54 362.61 124.62 363.27 126.86C363.93 129.1 370.7 137.86 370.15 141.7C369.813 144.02 369.602 146.357 369.52 148.7H357.92L357.45 145.44Z" fill="#FFBF9D"/>
<path d="M316.76 175.41C317.41 175.66 345.12 182.52 345.12 182.52C345.12 182.52 351.31 172.52 352.22 169.62C353.13 166.72 358 147.4 358 147.4L369.71 146.3C369.71 146.3 366.71 196.19 362.47 198.88C358.23 201.57 351.47 202.93 351.03 202.78C350.59 202.63 321.08 204.68 305.53 192.43C289.98 180.18 316.76 175.41 316.76 175.41Z" fill="#FFBF9D"/>
<g opacity="0.3">
<path d="M296.9 201.82C299.874 205.186 303.842 207.519 308.23 208.48C315.58 210.1 331.23 212.97 331.23 212.97L330.47 205.29L296.47 201.65" fill="black"/>
</g>
<path d="M284.56 191.26C287.08 196.58 292.68 202.26 304.99 203.55C329.36 206.07 347.81 207.41 355.78 206.21C363.75 205.01 366.92 188.14 367.78 187.62C370.26 186.06 370.1 180.7 367.96 179.1C361.88 174.55 349.69 171.1 348.87 171.47C344.02 173.88 345.6 179.52 345.6 179.52L314.7 172.7C311.141 171.22 307.428 170.14 303.63 169.48" fill="#455A64"/>
<path d="M303.63 169.48C303.63 169.48 303.89 169.48 304.39 169.58C304.89 169.68 305.64 169.8 306.6 170.01C309.387 170.642 312.116 171.505 314.76 172.59L345.64 179.31L345.38 179.59C344.923 177.818 345.063 175.944 345.78 174.26C346.175 173.398 346.772 172.643 347.52 172.06C347.899 171.764 348.304 171.503 348.73 171.28C348.876 171.236 349.028 171.213 349.18 171.21H349.55C349.8 171.21 350.02 171.29 350.26 171.33C354.06 172.229 357.766 173.484 361.33 175.08C363.208 175.898 365.023 176.854 366.76 177.94C367.19 178.22 367.62 178.53 368.05 178.83C368.495 179.168 368.857 179.602 369.11 180.1C369.598 181.082 369.851 182.164 369.85 183.26C369.876 184.37 369.628 185.468 369.13 186.46C368.854 186.972 368.464 187.413 367.99 187.75C367.87 187.81 367.79 188.07 367.69 188.31L367.43 189.06C366.77 191.06 366.11 193.2 365.31 195.26C364.262 198.214 362.728 200.972 360.77 203.42C360.06 204.35 359.155 205.114 358.119 205.656C357.082 206.199 355.939 206.507 354.77 206.56C354.02 206.67 353.27 206.69 352.53 206.75C349.53 206.93 346.65 206.89 343.8 206.81C340.95 206.73 338.16 206.58 335.45 206.41C324.58 205.71 314.83 204.72 306.65 203.87C304.696 203.699 302.753 203.418 300.83 203.03C299.124 202.665 297.451 202.157 295.83 201.51C293.204 200.49 290.797 198.976 288.74 197.05C287.456 195.821 286.352 194.417 285.46 192.88C285.141 192.353 284.863 191.801 284.63 191.23C284.63 191.23 284.91 191.8 285.55 192.83C286.474 194.329 287.594 195.698 288.88 196.9C290.935 198.784 293.331 200.257 295.94 201.24C297.564 201.866 299.236 202.358 300.94 202.71C302.858 203.078 304.794 203.341 306.74 203.5C314.92 204.31 324.67 205.26 335.52 205.94C338.24 206.1 341.02 206.24 343.86 206.31C346.7 206.38 349.61 206.42 352.55 206.25C353.28 206.18 354.03 206.16 354.76 206.05C355.489 206.012 356.209 205.874 356.9 205.64C358.282 205.107 359.501 204.225 360.44 203.08C362.356 200.679 363.856 197.976 364.88 195.08C365.68 193.08 366.33 190.97 366.99 188.91L367.27 188.13C367.27 188.01 367.37 187.88 367.43 187.74C367.466 187.663 367.51 187.589 367.56 187.52C367.598 187.472 367.642 187.428 367.69 187.39L367.76 187.33C368.175 187.043 368.517 186.663 368.76 186.22C369.227 185.291 369.454 184.259 369.42 183.22C369.423 182.208 369.194 181.209 368.75 180.3C368.532 179.871 368.221 179.495 367.84 179.2C367.41 178.91 367 178.6 366.57 178.33C364.858 177.252 363.066 176.306 361.21 175.5C357.686 173.911 354.02 172.659 350.26 171.76C350.03 171.76 349.8 171.66 349.58 171.64H349.25H349.03C348.636 171.85 348.261 172.095 347.91 172.37C347.213 172.895 346.654 173.582 346.28 174.37C345.617 175.952 345.481 177.705 345.89 179.37L345.98 179.72L345.63 179.64L314.8 172.74C312.18 171.638 309.479 170.742 306.72 170.06C305.72 169.83 305.03 169.67 304.53 169.57C304.03 169.47 303.63 169.48 303.63 169.48Z" fill="#263238"/>
<path d="M355.78 189.17C355.069 188.994 354.393 188.7 353.78 188.3C352.247 187.445 350.834 186.389 349.58 185.16C348.319 183.936 347.217 182.559 346.3 181.06C345.883 180.446 345.562 179.771 345.35 179.06C346.721 181.08 348.256 182.983 349.94 184.75C351.751 186.395 353.705 187.874 355.78 189.17Z" fill="#263238"/>
<path d="M138.22 271.53C138.22 271.53 144.42 271.86 148.22 274.27C152.02 276.68 158.22 280.4 160.77 285.04C161.94 287.17 158.61 287.62 156.97 286.38C155.33 285.14 152.8 282.82 151.55 282.53L150.3 282.25C151.44 284.83 152.711 287.35 154.11 289.8C155.4 291.8 156.52 295.12 152.65 295.28C152.65 295.28 150.03 298.68 147.39 296.16C147.39 296.16 145.33 299.24 142.01 294.97C142.01 294.97 140.08 297.41 139.27 296.48C138.46 295.55 135.82 294.06 135.05 291C133.901 287.436 132.566 283.934 131.05 280.51L138.22 271.53Z" fill="#FFBF9D"/>
<path d="M85.4599 190C82.2819 191.023 79.5389 193.083 77.6699 195.85C75.2899 199.51 74.5599 205.85 75.2399 210.57C76.6799 220.52 81.2399 237.31 83.8099 248.09C84.6899 251.81 86.4999 258.47 91.8099 262L129.7 284.72L139.83 269.72L105.29 241.57L98.4599 202.99L85.4599 190Z" fill="#455A64"/>
<path d="M78.91 227.92C78.9619 228.046 79.0021 228.177 79.03 228.31L79.35 229.48C79.62 230.54 80 232.06 80.5 234.01C81.5 238.01 82.92 243.69 84.69 250.76C85.7176 254.611 87.8943 258.057 90.93 260.64C92.6641 262.028 94.518 263.26 96.47 264.32L102.56 268L129.85 284.48L129.5 284.56L133.15 279.15L139.63 269.52L139.68 269.87L105.45 241.68H105.39V241.61C103.13 232.1 101.49 224.31 100.45 218.89C99.94 216.18 99.58 214.07 99.35 212.63C99.25 211.93 99.17 211.38 99.11 210.99C99.05 210.6 99.04 210.43 99.04 210.43C99.0943 210.611 99.1377 210.794 99.17 210.98C99.24 211.37 99.34 211.91 99.46 212.61C99.73 214.04 100.12 216.15 100.68 218.85C101.77 224.25 103.47 232.02 105.78 241.52L105.71 241.41L140 269.47L140.18 269.62L140.05 269.81L133.57 279.44L129.92 284.85L129.79 285.05L129.57 284.93L102.32 268.4L96.24 264.71C94.2751 263.639 92.408 262.397 90.66 261C87.5718 258.355 85.3693 254.826 84.35 250.89C82.64 243.8 81.27 238.07 80.35 234.1C79.9 232.1 79.54 230.61 79.29 229.55L79 228.32C78.9606 228.189 78.9306 228.055 78.91 227.92Z" fill="#263238"/>
<path d="M79.53 195.33C79.7652 195.176 80.0259 195.064 80.3 195C81.0258 194.776 81.7681 194.609 82.52 194.5C85.0282 194.113 87.5947 194.461 89.91 195.5C92.1476 196.667 94.0483 198.388 95.43 200.5C95.8489 201.138 96.1849 201.827 96.43 202.55C96.5373 202.807 96.5983 203.082 96.61 203.36C96.1778 202.442 95.6798 201.556 95.12 200.71C93.6965 198.739 91.8341 197.127 89.68 196C87.4458 195.01 84.9888 194.63 82.56 194.9C80.69 195.05 79.56 195.42 79.53 195.33Z" fill="#263238"/>
<path d="M497.352 258.3V249.573H502.619V250.51H498.408V253.459H502.346V254.397H498.408V257.362H502.687V258.3H497.352ZM504.387 258.3V251.755H505.359V252.777H505.444C505.58 252.428 505.801 252.157 506.105 251.963C506.408 251.767 506.774 251.669 507.2 251.669C507.632 251.669 507.991 251.767 508.278 251.963C508.568 252.157 508.793 252.428 508.955 252.777H509.024C509.191 252.439 509.443 252.171 509.778 251.972C510.113 251.77 510.515 251.669 510.984 251.669C511.569 251.669 512.048 251.853 512.42 252.219C512.792 252.583 512.978 253.149 512.978 253.919V258.3H511.972V253.919C511.972 253.436 511.84 253.091 511.576 252.884C511.312 252.676 511.001 252.573 510.643 252.573C510.183 252.573 509.826 252.712 509.573 252.99C509.32 253.266 509.194 253.615 509.194 254.039V258.3H508.171V253.817C508.171 253.445 508.051 253.145 507.809 252.918C507.568 252.688 507.257 252.573 506.876 252.573C506.614 252.573 506.37 252.642 506.143 252.782C505.918 252.921 505.737 253.114 505.597 253.361C505.461 253.605 505.393 253.888 505.393 254.209V258.3H504.387ZM516.743 258.453C516.328 258.453 515.952 258.375 515.614 258.219C515.276 258.06 515.007 257.831 514.808 257.533C514.609 257.232 514.51 256.868 514.51 256.442C514.51 256.067 514.584 255.763 514.732 255.53C514.879 255.294 515.077 255.11 515.324 254.976C515.571 254.843 515.844 254.743 516.142 254.678C516.443 254.61 516.746 254.556 517.05 254.516C517.448 254.465 517.77 254.426 518.017 254.401C518.267 254.372 518.449 254.326 518.563 254.26C518.679 254.195 518.737 254.081 518.737 253.919V253.885C518.737 253.465 518.622 253.138 518.392 252.905C518.165 252.672 517.82 252.556 517.357 252.556C516.877 252.556 516.5 252.661 516.227 252.871C515.955 253.081 515.763 253.306 515.652 253.544L514.698 253.203C514.868 252.806 515.095 252.496 515.379 252.274C515.666 252.05 515.979 251.894 516.317 251.806C516.658 251.715 516.993 251.669 517.323 251.669C517.533 251.669 517.774 251.695 518.047 251.746C518.323 251.794 518.588 251.895 518.844 252.049C519.102 252.202 519.317 252.434 519.487 252.743C519.658 253.053 519.743 253.468 519.743 253.987V258.3H518.737V257.414H518.686C518.618 257.556 518.504 257.708 518.345 257.87C518.186 258.032 517.975 258.169 517.71 258.283C517.446 258.397 517.124 258.453 516.743 258.453ZM516.896 257.55C517.294 257.55 517.629 257.472 517.902 257.316C518.178 257.159 518.385 256.958 518.524 256.71C518.666 256.463 518.737 256.203 518.737 255.931V255.01C518.695 255.061 518.601 255.108 518.456 255.151C518.314 255.191 518.149 255.226 517.962 255.257C517.777 255.286 517.597 255.311 517.421 255.334C517.247 255.354 517.107 255.371 516.999 255.385C516.737 255.419 516.493 255.475 516.266 255.551C516.041 255.625 515.859 255.737 515.72 255.888C515.584 256.036 515.516 256.237 515.516 256.493C515.516 256.843 515.645 257.107 515.904 257.286C516.165 257.462 516.496 257.55 516.896 257.55ZM521.579 258.3V251.755H522.584V258.3H521.579ZM522.09 250.664C521.894 250.664 521.725 250.597 521.583 250.463C521.444 250.33 521.374 250.169 521.374 249.982C521.374 249.794 521.444 249.634 521.583 249.5C521.725 249.367 521.894 249.3 522.09 249.3C522.286 249.3 522.454 249.367 522.593 249.5C522.735 249.634 522.806 249.794 522.806 249.982C522.806 250.169 522.735 250.33 522.593 250.463C522.454 250.597 522.286 250.664 522.09 250.664ZM525.432 249.573V258.3H524.426V249.573H525.432ZM533.308 258.436C532.717 258.436 532.199 258.296 531.753 258.014C531.309 257.733 530.963 257.34 530.713 256.834C530.466 256.328 530.342 255.737 530.342 255.061C530.342 254.38 530.466 253.784 530.713 253.276C530.963 252.767 531.309 252.372 531.753 252.091C532.199 251.81 532.717 251.669 533.308 251.669C533.899 251.669 534.416 251.81 534.859 252.091C535.305 252.372 535.652 252.767 535.899 253.276C536.149 253.784 536.274 254.38 536.274 255.061C536.274 255.737 536.149 256.328 535.899 256.834C535.652 257.34 535.305 257.733 534.859 258.014C534.416 258.296 533.899 258.436 533.308 258.436ZM533.308 257.533C533.757 257.533 534.126 257.418 534.416 257.188C534.706 256.958 534.92 256.655 535.059 256.28C535.199 255.905 535.268 255.499 535.268 255.061C535.268 254.624 535.199 254.216 535.059 253.838C534.92 253.46 534.706 253.155 534.416 252.922C534.126 252.689 533.757 252.573 533.308 252.573C532.859 252.573 532.49 252.689 532.2 252.922C531.91 253.155 531.696 253.46 531.557 253.838C531.417 254.216 531.348 254.624 531.348 255.061C531.348 255.499 531.417 255.905 531.557 256.28C531.696 256.655 531.91 256.958 532.2 257.188C532.49 257.418 532.859 257.533 533.308 257.533ZM537.809 258.3V251.755H538.781V252.743H538.849C538.968 252.419 539.184 252.157 539.497 251.955C539.809 251.753 540.161 251.652 540.553 251.652C540.627 251.652 540.72 251.654 540.83 251.657C540.941 251.659 541.025 251.664 541.082 251.669V252.692C541.048 252.684 540.97 252.671 540.847 252.654C540.728 252.634 540.602 252.624 540.468 252.624C540.15 252.624 539.866 252.691 539.616 252.824C539.369 252.955 539.173 253.137 539.028 253.37C538.886 253.6 538.815 253.862 538.815 254.158V258.3H537.809ZM551.513 249.573H552.569V255.351C552.569 255.948 552.429 256.48 552.147 256.949C551.869 257.415 551.476 257.783 550.967 258.053C550.459 258.32 549.862 258.453 549.177 258.453C548.493 258.453 547.896 258.32 547.388 258.053C546.879 257.783 546.484 257.415 546.203 256.949C545.924 256.48 545.785 255.948 545.785 255.351V249.573H546.842V255.266C546.842 255.692 546.936 256.071 547.123 256.404C547.311 256.733 547.578 256.993 547.924 257.184C548.274 257.371 548.692 257.465 549.177 257.465C549.663 257.465 550.081 257.371 550.43 257.184C550.78 256.993 551.047 256.733 551.231 256.404C551.419 256.071 551.513 255.692 551.513 255.266V249.573ZM559.18 253.22L558.276 253.476C558.22 253.326 558.136 253.179 558.025 253.037C557.917 252.892 557.769 252.773 557.582 252.679C557.394 252.585 557.154 252.539 556.862 252.539C556.461 252.539 556.127 252.631 555.86 252.816C555.596 252.997 555.464 253.229 555.464 253.51C555.464 253.76 555.555 253.958 555.737 254.103C555.918 254.247 556.203 254.368 556.589 254.465L557.56 254.703C558.146 254.845 558.582 255.063 558.869 255.355C559.156 255.645 559.299 256.019 559.299 256.476C559.299 256.851 559.191 257.186 558.975 257.482C558.762 257.777 558.464 258.01 558.08 258.181C557.697 258.351 557.251 258.436 556.742 258.436C556.075 258.436 555.522 258.291 555.085 258.002C554.647 257.712 554.37 257.289 554.254 256.732L555.208 256.493C555.299 256.845 555.471 257.11 555.724 257.286C555.98 257.462 556.313 257.55 556.725 257.55C557.194 257.55 557.566 257.451 557.842 257.252C558.12 257.05 558.259 256.809 558.259 256.527C558.259 256.3 558.18 256.11 558.021 255.956C557.862 255.8 557.617 255.684 557.288 255.607L556.197 255.351C555.597 255.209 555.157 254.989 554.876 254.691C554.597 254.389 554.458 254.013 554.458 253.561C554.458 253.192 554.562 252.865 554.769 252.581C554.98 252.297 555.265 252.074 555.626 251.912C555.989 251.75 556.401 251.669 556.862 251.669C557.509 251.669 558.018 251.811 558.387 252.095C558.759 252.38 559.024 252.755 559.18 253.22ZM563.557 258.436C562.927 258.436 562.383 258.297 561.925 258.019C561.471 257.737 561.12 257.345 560.873 256.843C560.628 256.337 560.506 255.749 560.506 255.078C560.506 254.408 560.628 253.817 560.873 253.306C561.12 252.791 561.464 252.391 561.904 252.104C562.347 251.814 562.864 251.669 563.455 251.669C563.796 251.669 564.133 251.726 564.465 251.84C564.797 251.953 565.1 252.138 565.373 252.394C565.645 252.647 565.863 252.982 566.025 253.399C566.187 253.817 566.268 254.331 566.268 254.942V255.368H561.222V254.499H565.245C565.245 254.13 565.171 253.8 565.023 253.51C564.878 253.22 564.671 252.992 564.401 252.824C564.134 252.657 563.819 252.573 563.455 252.573C563.054 252.573 562.708 252.672 562.415 252.871C562.125 253.067 561.902 253.323 561.746 253.638C561.59 253.953 561.512 254.291 561.512 254.652V255.232C561.512 255.726 561.597 256.145 561.768 256.489C561.941 256.83 562.181 257.09 562.488 257.269C562.795 257.445 563.151 257.533 563.557 257.533C563.821 257.533 564.06 257.496 564.273 257.422C564.489 257.345 564.675 257.232 564.831 257.081C564.988 256.928 565.108 256.737 565.194 256.51L566.165 256.783C566.063 257.112 565.891 257.402 565.65 257.652C565.408 257.899 565.11 258.093 564.755 258.232C564.4 258.368 564 258.436 563.557 258.436ZM567.797 258.3V251.755H568.769V252.743H568.837C568.956 252.419 569.172 252.157 569.485 251.955C569.797 251.753 570.15 251.652 570.542 251.652C570.616 251.652 570.708 251.654 570.819 251.657C570.929 251.659 571.013 251.664 571.07 251.669V252.692C571.036 252.684 570.958 252.671 570.836 252.654C570.716 252.634 570.59 252.624 570.456 252.624C570.138 252.624 569.854 252.691 569.604 252.824C569.357 252.955 569.161 253.137 569.016 253.37C568.874 253.6 568.803 253.862 568.803 254.158V258.3H567.797ZM573.268 254.362V258.3H572.262V251.755H573.234V252.777H573.319C573.472 252.445 573.705 252.178 574.018 251.976C574.33 251.772 574.734 251.669 575.228 251.669C575.671 251.669 576.059 251.76 576.391 251.942C576.724 252.121 576.982 252.394 577.167 252.76C577.352 253.124 577.444 253.584 577.444 254.141V258.3H576.438V254.209C576.438 253.695 576.305 253.294 576.038 253.007C575.771 252.718 575.404 252.573 574.938 252.573C574.617 252.573 574.33 252.642 574.078 252.782C573.828 252.921 573.63 253.124 573.485 253.391C573.34 253.658 573.268 253.982 573.268 254.362ZM581.208 258.453C580.793 258.453 580.417 258.375 580.079 258.219C579.741 258.06 579.472 257.831 579.273 257.533C579.074 257.232 578.975 256.868 578.975 256.442C578.975 256.067 579.049 255.763 579.196 255.53C579.344 255.294 579.542 255.11 579.789 254.976C580.036 254.843 580.309 254.743 580.607 254.678C580.908 254.61 581.211 254.556 581.515 254.516C581.912 254.465 582.235 254.426 582.482 254.401C582.732 254.372 582.914 254.326 583.027 254.26C583.144 254.195 583.202 254.081 583.202 253.919V253.885C583.202 253.465 583.087 253.138 582.857 252.905C582.63 252.672 582.285 252.556 581.821 252.556C581.341 252.556 580.965 252.661 580.692 252.871C580.42 253.081 580.228 253.306 580.117 253.544L579.162 253.203C579.333 252.806 579.56 252.496 579.844 252.274C580.131 252.05 580.444 251.894 580.782 251.806C581.123 251.715 581.458 251.669 581.787 251.669C581.998 251.669 582.239 251.695 582.512 251.746C582.787 251.794 583.053 251.895 583.309 252.049C583.567 252.202 583.782 252.434 583.952 252.743C584.123 253.053 584.208 253.468 584.208 253.987V258.3H583.202V257.414H583.151C583.083 257.556 582.969 257.708 582.81 257.87C582.651 258.032 582.439 258.169 582.175 258.283C581.911 258.397 581.589 258.453 581.208 258.453ZM581.361 257.55C581.759 257.55 582.094 257.472 582.367 257.316C582.643 257.159 582.85 256.958 582.989 256.71C583.131 256.463 583.202 256.203 583.202 255.931V255.01C583.16 255.061 583.066 255.108 582.921 255.151C582.779 255.191 582.614 255.226 582.427 255.257C582.242 255.286 582.062 255.311 581.885 255.334C581.712 255.354 581.571 255.371 581.464 255.385C581.202 255.419 580.958 255.475 580.731 255.551C580.506 255.625 580.324 255.737 580.185 255.888C580.049 256.036 579.981 256.237 579.981 256.493C579.981 256.843 580.11 257.107 580.368 257.286C580.63 257.462 580.961 257.55 581.361 257.55ZM586.043 258.3V251.755H587.015V252.777H587.1C587.237 252.428 587.457 252.157 587.761 251.963C588.065 251.767 588.43 251.669 588.856 251.669C589.288 251.669 589.647 251.767 589.934 251.963C590.224 252.157 590.45 252.428 590.612 252.777H590.68C590.847 252.439 591.099 252.171 591.434 251.972C591.769 251.77 592.171 251.669 592.64 251.669C593.225 251.669 593.704 251.853 594.076 252.219C594.448 252.583 594.634 253.149 594.634 253.919V258.3H593.629V253.919C593.629 253.436 593.497 253.091 593.232 252.884C592.968 252.676 592.657 252.573 592.299 252.573C591.839 252.573 591.482 252.712 591.23 252.99C590.977 253.266 590.85 253.615 590.85 254.039V258.3H589.828V253.817C589.828 253.445 589.707 253.145 589.465 252.918C589.224 252.688 588.913 252.573 588.532 252.573C588.271 252.573 588.026 252.642 587.799 252.782C587.575 252.921 587.393 253.114 587.254 253.361C587.117 253.605 587.049 253.888 587.049 254.209V258.3H586.043ZM599.217 258.436C598.587 258.436 598.043 258.297 597.585 258.019C597.131 257.737 596.78 257.345 596.533 256.843C596.288 256.337 596.166 255.749 596.166 255.078C596.166 254.408 596.288 253.817 596.533 253.306C596.78 252.791 597.124 252.391 597.564 252.104C598.007 251.814 598.524 251.669 599.115 251.669C599.456 251.669 599.793 251.726 600.125 251.84C600.458 251.953 600.76 252.138 601.033 252.394C601.306 252.647 601.523 252.982 601.685 253.399C601.847 253.817 601.928 254.331 601.928 254.942V255.368H596.882V254.499H600.905C600.905 254.13 600.831 253.8 600.683 253.51C600.538 253.22 600.331 252.992 600.061 252.824C599.794 252.657 599.479 252.573 599.115 252.573C598.715 252.573 598.368 252.672 598.075 252.871C597.786 253.067 597.563 253.323 597.406 253.638C597.25 253.953 597.172 254.291 597.172 254.652V255.232C597.172 255.726 597.257 256.145 597.428 256.489C597.601 256.83 597.841 257.09 598.148 257.269C598.455 257.445 598.811 257.533 599.217 257.533C599.482 257.533 599.72 257.496 599.933 257.422C600.149 257.345 600.335 257.232 600.492 257.081C600.648 256.928 600.769 256.737 600.854 256.51L601.825 256.783C601.723 257.112 601.551 257.402 601.31 257.652C601.068 257.899 600.77 258.093 600.415 258.232C600.06 258.368 599.661 258.436 599.217 258.436Z" fill="#263238"/>
<path d="M546.558 210.806V197.715H549.326V208.524H554.938V210.806H546.558ZM561.156 210.997C560.163 210.997 559.304 210.786 558.58 210.365C557.859 209.938 557.303 209.346 556.911 208.588C556.519 207.825 556.323 206.941 556.323 205.935C556.323 204.921 556.519 204.034 556.911 203.276C557.303 202.513 557.859 201.921 558.58 201.499C559.304 201.073 560.163 200.86 561.156 200.86C562.148 200.86 563.005 201.073 563.725 201.499C564.45 201.921 565.008 202.513 565.4 203.276C565.792 204.034 565.988 204.921 565.988 205.935C565.988 206.941 565.792 207.825 565.4 208.588C565.008 209.346 564.45 209.938 563.725 210.365C563.005 210.786 562.148 210.997 561.156 210.997ZM561.168 208.888C561.62 208.888 561.997 208.76 562.3 208.504C562.602 208.245 562.83 207.891 562.984 207.443C563.141 206.996 563.22 206.487 563.22 205.916C563.22 205.345 563.141 204.835 562.984 204.388C562.83 203.941 562.602 203.587 562.3 203.327C561.997 203.067 561.62 202.937 561.168 202.937C560.712 202.937 560.329 203.067 560.018 203.327C559.711 203.587 559.479 203.941 559.321 204.388C559.168 204.835 559.091 205.345 559.091 205.916C559.091 206.487 559.168 206.996 559.321 207.443C559.479 207.891 559.711 208.245 560.018 208.504C560.329 208.76 560.712 208.888 561.168 208.888ZM572.182 214.692C571.3 214.692 570.543 214.571 569.913 214.328C569.286 214.089 568.788 213.763 568.417 213.35C568.046 212.936 567.805 212.472 567.695 211.956L570.213 211.617C570.29 211.813 570.411 211.997 570.577 212.167C570.744 212.338 570.963 212.474 571.236 212.576C571.513 212.683 571.849 212.736 572.246 212.736C572.838 212.736 573.326 212.591 573.71 212.301C574.097 212.016 574.291 211.536 574.291 210.863V209.067H574.176C574.057 209.34 573.878 209.598 573.639 209.84C573.401 210.083 573.094 210.281 572.719 210.435C572.344 210.588 571.896 210.665 571.376 210.665C570.639 210.665 569.968 210.495 569.363 210.154C568.762 209.808 568.283 209.282 567.925 208.575C567.571 207.863 567.394 206.964 567.394 205.877C567.394 204.765 567.575 203.836 567.938 203.09C568.3 202.345 568.781 201.786 569.382 201.416C569.987 201.045 570.65 200.86 571.37 200.86C571.92 200.86 572.38 200.953 572.751 201.141C573.122 201.324 573.42 201.554 573.646 201.831C573.876 202.104 574.053 202.372 574.176 202.637H574.278V200.987H576.982V210.901C576.982 211.737 576.778 212.436 576.369 212.998C575.96 213.561 575.393 213.982 574.668 214.264C573.948 214.549 573.119 214.692 572.182 214.692ZM572.239 208.62C572.678 208.62 573.049 208.511 573.352 208.294C573.658 208.072 573.893 207.757 574.055 207.348C574.221 206.934 574.304 206.44 574.304 205.865C574.304 205.289 574.223 204.791 574.061 204.369C573.899 203.943 573.665 203.612 573.358 203.378C573.051 203.144 572.678 203.026 572.239 203.026C571.792 203.026 571.415 203.148 571.108 203.391C570.801 203.629 570.569 203.962 570.411 204.388C570.254 204.814 570.175 205.306 570.175 205.865C570.175 206.431 570.254 206.921 570.411 207.335C570.573 207.744 570.805 208.061 571.108 208.287C571.415 208.509 571.792 208.62 572.239 208.62ZM579.149 210.806V200.987H581.872V210.806H579.149ZM580.517 199.722C580.112 199.722 579.765 199.588 579.475 199.319C579.19 199.046 579.047 198.72 579.047 198.341C579.047 197.966 579.19 197.644 579.475 197.376C579.765 197.103 580.112 196.967 580.517 196.967C580.922 196.967 581.267 197.103 581.553 197.376C581.842 197.644 581.987 197.966 581.987 198.341C581.987 198.72 581.842 199.046 581.553 199.319C581.267 199.588 580.922 199.722 580.517 199.722ZM586.777 205.129V210.806H584.054V200.987H586.649V202.72H586.764C586.981 202.149 587.345 201.697 587.857 201.365C588.368 201.028 588.988 200.86 589.717 200.86C590.399 200.86 590.993 201.009 591.5 201.307C592.007 201.605 592.402 202.031 592.683 202.585C592.964 203.135 593.105 203.791 593.105 204.554V210.806H590.382V205.04C590.386 204.439 590.232 203.97 589.921 203.634C589.61 203.293 589.182 203.122 588.637 203.122C588.27 203.122 587.946 203.201 587.665 203.359C587.388 203.517 587.171 203.747 587.013 204.049C586.86 204.348 586.781 204.708 586.777 205.129Z" fill="#FD961A"/>
<path d="M495.197 301.56V292.833H498.146C498.83 292.833 499.39 292.956 499.825 293.203C500.262 293.448 500.586 293.779 500.796 294.196C501.006 294.614 501.111 295.08 501.111 295.594C501.111 296.108 501.006 296.576 500.796 296.996C500.589 297.417 500.268 297.752 499.833 298.002C499.398 298.249 498.842 298.372 498.163 298.372H496.049V297.435H498.129C498.597 297.435 498.974 297.354 499.258 297.192C499.542 297.03 499.748 296.811 499.876 296.536C500.006 296.257 500.072 295.944 500.072 295.594C500.072 295.245 500.006 294.932 499.876 294.657C499.748 294.381 499.54 294.165 499.254 294.009C498.967 293.85 498.586 293.77 498.111 293.77H496.254V301.56H495.197ZM504.604 301.713C504.189 301.713 503.812 301.635 503.474 301.479C503.136 301.32 502.868 301.091 502.669 300.793C502.47 300.492 502.371 300.128 502.371 299.702C502.371 299.327 502.445 299.023 502.592 298.79C502.74 298.554 502.937 298.37 503.185 298.236C503.432 298.103 503.705 298.003 504.003 297.938C504.304 297.87 504.607 297.816 504.91 297.776C505.308 297.725 505.631 297.686 505.878 297.661C506.128 297.632 506.31 297.586 506.423 297.52C506.54 297.455 506.598 297.341 506.598 297.179V297.145C506.598 296.725 506.483 296.398 506.253 296.165C506.026 295.932 505.68 295.816 505.217 295.816C504.737 295.816 504.361 295.921 504.088 296.131C503.815 296.341 503.624 296.566 503.513 296.804L502.558 296.463C502.729 296.066 502.956 295.756 503.24 295.534C503.527 295.31 503.839 295.154 504.178 295.066C504.518 294.975 504.854 294.929 505.183 294.929C505.393 294.929 505.635 294.955 505.908 295.006C506.183 295.054 506.449 295.155 506.705 295.309C506.963 295.462 507.178 295.694 507.348 296.003C507.518 296.313 507.604 296.728 507.604 297.247V301.56H506.598V300.674H506.547C506.479 300.816 506.365 300.968 506.206 301.13C506.047 301.292 505.835 301.429 505.571 301.543C505.307 301.657 504.984 301.713 504.604 301.713ZM504.757 300.81C505.155 300.81 505.49 300.732 505.763 300.576C506.038 300.419 506.246 300.218 506.385 299.971C506.527 299.723 506.598 299.463 506.598 299.191V298.27C506.555 298.321 506.462 298.368 506.317 298.411C506.175 298.451 506.01 298.486 505.822 298.517C505.638 298.546 505.457 298.571 505.281 298.594C505.108 298.614 504.967 298.631 504.859 298.645C504.598 298.679 504.354 298.735 504.126 298.811C503.902 298.885 503.72 298.997 503.581 299.148C503.445 299.296 503.376 299.497 503.376 299.753C503.376 300.103 503.506 300.367 503.764 300.546C504.026 300.722 504.357 300.81 504.757 300.81ZM514.076 296.48L513.172 296.736C513.115 296.586 513.032 296.439 512.921 296.297C512.813 296.152 512.665 296.033 512.478 295.939C512.29 295.846 512.05 295.799 511.757 295.799C511.357 295.799 511.023 295.891 510.756 296.076C510.492 296.257 510.36 296.489 510.36 296.77C510.36 297.02 510.451 297.218 510.632 297.363C510.814 297.507 511.098 297.628 511.485 297.725L512.456 297.963C513.042 298.105 513.478 298.323 513.765 298.615C514.051 298.905 514.195 299.279 514.195 299.736C514.195 300.111 514.087 300.446 513.871 300.742C513.658 301.037 513.36 301.27 512.976 301.441C512.593 301.611 512.147 301.696 511.638 301.696C510.971 301.696 510.418 301.551 509.98 301.262C509.543 300.972 509.266 300.549 509.149 299.992L510.104 299.753C510.195 300.105 510.367 300.37 510.62 300.546C510.875 300.722 511.209 300.81 511.621 300.81C512.09 300.81 512.462 300.711 512.738 300.512C513.016 300.31 513.155 300.069 513.155 299.787C513.155 299.56 513.076 299.37 512.917 299.216C512.757 299.06 512.513 298.944 512.184 298.867L511.093 298.611C510.493 298.469 510.053 298.249 509.772 297.951C509.493 297.649 509.354 297.273 509.354 296.821C509.354 296.452 509.458 296.125 509.665 295.841C509.875 295.557 510.161 295.334 510.522 295.172C510.885 295.01 511.297 294.929 511.757 294.929C512.405 294.929 512.914 295.071 513.283 295.355C513.655 295.64 513.919 296.015 514.076 296.48ZM520.345 296.48L519.442 296.736C519.385 296.586 519.301 296.439 519.19 296.297C519.082 296.152 518.935 296.033 518.747 295.939C518.56 295.846 518.32 295.799 518.027 295.799C517.626 295.799 517.293 295.891 517.026 296.076C516.761 296.257 516.629 296.489 516.629 296.77C516.629 297.02 516.72 297.218 516.902 297.363C517.084 297.507 517.368 297.628 517.754 297.725L518.726 297.963C519.311 298.105 519.747 298.323 520.034 298.615C520.321 298.905 520.464 299.279 520.464 299.736C520.464 300.111 520.357 300.446 520.141 300.742C519.928 301.037 519.629 301.27 519.246 301.441C518.862 301.611 518.416 301.696 517.908 301.696C517.24 301.696 516.687 301.551 516.25 301.262C515.812 300.972 515.535 300.549 515.419 299.992L516.374 299.753C516.464 300.105 516.636 300.37 516.889 300.546C517.145 300.722 517.479 300.81 517.891 300.81C518.359 300.81 518.732 300.711 519.007 300.512C519.285 300.31 519.425 300.069 519.425 299.787C519.425 299.56 519.345 299.37 519.186 299.216C519.027 299.06 518.783 298.944 518.453 298.867L517.362 298.611C516.763 298.469 516.322 298.249 516.041 297.951C515.763 297.649 515.624 297.273 515.624 296.821C515.624 296.452 515.727 296.125 515.935 295.841C516.145 295.557 516.43 295.334 516.791 295.172C517.155 295.01 517.567 294.929 518.027 294.929C518.675 294.929 519.183 295.071 519.553 295.355C519.925 295.64 520.189 296.015 520.345 296.48ZM523.461 301.56L521.467 295.015H522.524L523.939 300.026H524.007L525.404 295.015H526.478L527.859 300.009H527.927L529.342 295.015H530.399L528.404 301.56H527.416L525.984 296.532H525.882L524.45 301.56H523.461ZM534.165 301.696C533.574 301.696 533.055 301.556 532.609 301.274C532.166 300.993 531.82 300.6 531.57 300.094C531.322 299.588 531.199 298.997 531.199 298.321C531.199 297.64 531.322 297.044 531.57 296.536C531.82 296.027 532.166 295.632 532.609 295.351C533.055 295.07 533.574 294.929 534.165 294.929C534.756 294.929 535.273 295.07 535.716 295.351C536.162 295.632 536.509 296.027 536.756 296.536C537.006 297.044 537.131 297.64 537.131 298.321C537.131 298.997 537.006 299.588 536.756 300.094C536.509 300.6 536.162 300.993 535.716 301.274C535.273 301.556 534.756 301.696 534.165 301.696ZM534.165 300.793C534.614 300.793 534.983 300.678 535.273 300.448C535.562 300.218 535.777 299.915 535.916 299.54C536.055 299.165 536.125 298.759 536.125 298.321C536.125 297.884 536.055 297.476 535.916 297.098C535.777 296.721 535.562 296.415 535.273 296.182C534.983 295.949 534.614 295.833 534.165 295.833C533.716 295.833 533.347 295.949 533.057 296.182C532.767 296.415 532.553 296.721 532.413 297.098C532.274 297.476 532.205 297.884 532.205 298.321C532.205 298.759 532.274 299.165 532.413 299.54C532.553 299.915 532.767 300.218 533.057 300.448C533.347 300.678 533.716 300.793 534.165 300.793ZM538.666 301.56V295.015H539.637V296.003H539.706C539.825 295.679 540.041 295.417 540.353 295.215C540.666 295.013 541.018 294.912 541.41 294.912C541.484 294.912 541.576 294.914 541.687 294.917C541.798 294.919 541.882 294.924 541.939 294.929V295.952C541.904 295.944 541.826 295.931 541.704 295.914C541.585 295.894 541.458 295.884 541.325 295.884C541.007 295.884 540.723 295.951 540.473 296.084C540.225 296.215 540.029 296.397 539.885 296.63C539.743 296.86 539.671 297.122 539.671 297.418V301.56H538.666ZM545.403 301.696C544.858 301.696 544.376 301.559 543.958 301.283C543.541 301.005 543.214 300.613 542.978 300.107C542.743 299.598 542.625 298.997 542.625 298.304C542.625 297.617 542.743 297.02 542.978 296.515C543.214 296.009 543.542 295.618 543.963 295.343C544.383 295.067 544.869 294.929 545.42 294.929C545.846 294.929 546.183 295 546.43 295.142C546.68 295.282 546.87 295.441 547.001 295.62C547.135 295.796 547.238 295.941 547.312 296.054H547.397V292.833H548.403V301.56H547.431V300.554H547.312C547.238 300.674 547.133 300.824 546.997 301.006C546.86 301.185 546.666 301.346 546.413 301.488C546.16 301.627 545.823 301.696 545.403 301.696ZM545.539 300.793C545.943 300.793 546.284 300.688 546.562 300.478C546.841 300.265 547.052 299.971 547.197 299.596C547.342 299.218 547.414 298.782 547.414 298.287C547.414 297.799 547.343 297.371 547.201 297.005C547.059 296.635 546.849 296.348 546.571 296.144C546.292 295.936 545.948 295.833 545.539 295.833C545.113 295.833 544.758 295.942 544.474 296.161C544.193 296.377 543.981 296.671 543.839 297.043C543.7 297.412 543.63 297.827 543.63 298.287C543.63 298.753 543.701 299.176 543.843 299.557C543.988 299.935 544.201 300.236 544.483 300.461C544.767 300.682 545.119 300.793 545.539 300.793Z" fill="#263238"/>
</svg>
